<?xml version="1.0" encoding="utf-8"?>
<!-- Generator: Adobe Illustrator 21.1.0, SVG Export Plug-In . SVG Version: 6.00 Build 0)  -->
<svg version="1.1" id="Ebene_1" xmlns="http://www.w3.org/2000/svg" xmlns:xlink="http://www.w3.org/1999/xlink" x="0px" y="0px"
	 viewBox="0 0 1737.7 654.9" style="enable-background:new 0 0 1737.7 654.9;" xml:space="preserve">
<style type="text/css">
	.st0{fill:#13E855;}
	.st1{fill:#74F7F0;}
	.st2{fill:#F4CF92;}
	.st3{fill:#7694F4;}
	.st4{fill:#3C3C3B;}
	.st5{fill:#EAEFF4;}
	.st6{fill:none;stroke:#3C3C3B;stroke-width:2;stroke-miterlimit:10;}
	.st7{fill:#3579DB;}
	.st8{fill:#FFFFFF;}
	.st9{fill:#CCA56D;}
	.st10{fill:#A0773C;}
	.st11{fill:#E677F2;}
	.st12{fill:#97F2D4;}
	.st13{fill:none;stroke:#00A266;stroke-width:14.5151;stroke-miterlimit:10;}
	.st14{font-family:'Faustina-SemiBold';}
	.st15{font-size:87.0907px;}
</style>
<g>
	<path class="st0" d="M117.3,386c0.1,15.6-12.4,28.2-28.1,28.3s-28.4-12.5-28.4-28v-0.7c-0.1-15.6,12.4-28.2,28.1-28.3
		s28.4,12.5,28.4,28V386z"/>
</g>
<g>
	<path class="st1" d="M57.2,553c0-13.4,0-26.7,0-40.1c0-16-0.1-31.9-0.2-47.9c0-3-1.3-4.6-3.6-4.8c-2.2-0.1-3.9,1.4-4,3.8
		c-0.1,8.5,0,16.9,0,25.4c0,7-0.1,4.1-0.1,11.1c0,4.6,0.1,13.3,0.1,17.9c0,5.3-3.9,9.2-9.3,9.6c-6,0.4-10.3-2.8-11-8.3
		c-0.1-0.9-0.2-1.8-0.2-2.6c0-22.6,0-39.1,0-61.7c0-14.9,7.7-26.5,20.8-31c3.9-1.3,8.1-2.1,12.2-2.1c18.2-0.2,36.5-0.2,54.7-0.1
		c16,0.1,28.6,10.2,31.8,25.3c0.5,2.2,0.7,4.4,0.7,6.7c0.1,23.1,0,40.2,0,63.3c0,5-1.9,8.1-5.9,9.7c-4.2,1.7-9.1,0.7-12.2-2.5
		c-2-2.1-2.5-4.7-2.5-7.5c0-8.4,0-10.8,0-19.2c0-11.1,0-22.2,0-33.4c0-2.9-1.3-4.5-3.7-4.5c-2.2,0-3.6,1.6-3.7,4.4
		c0,1.1,0,2.2,0,3.4c0,57.3,0,96.5,0,153.8c0,6.7-3.4,11.2-9.8,13.1c-6.1,1.8-13.1-0.3-16-5.5c-1.4-2.5-2.1-5.6-2.1-8.4
		c-0.1-32.7-0.1-47.4-0.1-80.1c0-3.3-1.4-4.8-4.3-4.6c-2.7,0.2-3.9,1.4-3.9,4.1c0,18.7,0,37.4,0,56.1c0,14.5,0.1,10.9-0.1,25.4
		c-0.1,8.6-6.2,14.2-14.7,13.6c-6.7-0.5-13.1-4.3-13.1-13.3c0-23.3,0-28.6,0-51.8c0-5.8,0-11.5,0-17.3C57.1,553,57.2,553,57.2,553z"
		/>
</g>
<g>
	<path class="st1" d="M88.9,368.6c13.6-0.1,24.7,10.9,24.7,24.4c0,13.7-10.8,24.7-24.3,24.7c-13.7,0.1-24.7-10.8-24.8-24.5
		C64.4,379.5,75.3,368.6,88.9,368.6z"/>
</g>
<g>
	<path class="st1" d="M57.2,553c0-13.4,0-26.7,0-40.1c0-16-0.1-31.9-0.2-47.9c0-3-1.3-4.6-3.6-4.8c-2.2-0.1-3.9,1.4-4,3.8
		c-0.1,8.5,0,16.9,0,25.4c0,7-0.1,4.1-0.1,11.1c0,4.6,0.1,13.3,0.1,17.9c0,5.3-3.9,9.2-9.3,9.6c-6,0.4-10.3-2.8-11-8.3
		c-0.1-0.9-0.2-1.8-0.2-2.6c0-22.6,0-39.1,0-61.7c0-14.9,7.7-26.5,20.8-31c3.9-1.3,8.1-2.1,12.2-2.1c18.2-0.2,36.5-0.2,54.7-0.1
		c16,0.1,28.6,10.2,31.8,25.3c0.5,2.2,0.7,4.4,0.7,6.7c0.1,23.1,0,40.2,0,63.3c0,5-1.9,8.1-5.9,9.7c-4.2,1.7-9.1,0.7-12.2-2.5
		c-2-2.1-2.5-4.7-2.5-7.5c0-8.4,0-10.8,0-19.2c0-11.1,0-22.2,0-33.4c0-2.9-1.3-4.5-3.7-4.5c-2.2,0-3.6,1.6-3.7,4.4
		c0,1.1,0,2.2,0,3.4c0,57.3,0,96.5,0,153.8c0,6.7-3.4,11.2-9.8,13.1c-6.1,1.8-13.1-0.3-16-5.5c-1.4-2.5-2.1-5.6-2.1-8.4
		c-0.1-32.7-0.1-47.4-0.1-80.1c0-3.3-1.4-4.8-4.3-4.6c-2.7,0.2-3.9,1.4-3.9,4.1c0,18.7,0,37.4,0,56.1c0,14.5,0.1,10.9-0.1,25.4
		c-0.1,8.6-6.2,14.2-14.7,13.6c-6.7-0.5-13.1-4.3-13.1-13.3c0-23.3,0-28.6,0-51.8c0-5.8,0-11.5,0-17.3C57.1,553,57.2,553,57.2,553z"
		/>
</g>
<g>
	<path class="st1" d="M88.9,368.6c13.6-0.1,24.7,10.9,24.7,24.4c0,13.7-10.8,24.7-24.3,24.7c-13.7,0.1-24.7-10.8-24.8-24.5
		C64.4,379.5,75.3,368.6,88.9,368.6z"/>
</g>
<g>
	<path class="st2" d="M57.2,553c0-13.4,0-26.7,0-40.1c0-16-0.1-31.9-0.2-47.9c0-3-1.3-4.6-3.6-4.8c-2.2-0.1-3.9,1.4-4,3.8
		c-0.1,8.5,0,16.9,0,25.4c0,7-0.1,4.1-0.1,11.1c0,4.6,0.1,13.3,0.1,17.9c0,5.3-3.9,9.2-9.3,9.6c-6,0.4-10.3-2.8-11-8.3
		c-0.1-0.9-0.2-1.8-0.2-2.6c0-22.6,0-39.1,0-61.7c0-14.9,7.7-26.5,20.8-31c3.9-1.3,8.1-2.1,12.2-2.1c18.2-0.2,36.5-0.2,54.7-0.1
		c16,0.1,28.6,10.2,31.8,25.3c0.5,2.2,0.7,4.4,0.7,6.7c0.1,23.1,0,40.2,0,63.3c0,5-1.9,8.1-5.9,9.7c-4.2,1.7-9.1,0.7-12.2-2.5
		c-2-2.1-2.5-4.7-2.5-7.5c0-8.4,0-10.8,0-19.2c0-11.1,0-22.2,0-33.4c0-2.9-1.3-4.5-3.7-4.5c-2.2,0-3.6,1.6-3.7,4.4
		c0,1.1,0,2.2,0,3.4c0,57.3,0,96.5,0,153.8c0,6.7-3.4,11.2-9.8,13.1c-6.1,1.8-13.1-0.3-16-5.5c-1.4-2.5-2.1-5.6-2.1-8.4
		c-0.1-32.7-0.1-47.4-0.1-80.1c0-3.3-1.4-4.8-4.3-4.6c-2.7,0.2-3.9,1.4-3.9,4.1c0,18.7,0,37.4,0,56.1c0,14.5,0.1,10.9-0.1,25.4
		c-0.1,8.6-6.2,14.2-14.7,13.6c-6.7-0.5-13.1-4.3-13.1-13.3c0-23.3,0-28.6,0-51.8c0-5.8,0-11.5,0-17.3C57.1,553,57.2,553,57.2,553z"
		/>
</g>
<g>
	<path class="st3" d="M88.9,368.6c13.6-0.1,24.7,10.9,24.7,24.4c0,13.7-10.8,24.7-24.3,24.7c-13.7,0.1-24.7-10.8-24.8-24.5
		C64.4,379.5,75.3,368.6,88.9,368.6z"/>
</g>
<g>
	<path class="st2" d="M88.9,368.6c13.6-0.1,24.7,10.9,24.7,24.4c0,13.7-10.8,24.7-24.3,24.7c-13.7,0.1-24.7-10.8-24.8-24.5
		C64.4,379.5,75.3,368.6,88.9,368.6z"/>
</g>
<g>
	<path class="st1" d="M88.9,368.6c13.6-0.1,24.7,10.9,24.7,24.4c0,13.7-10.8,24.7-24.3,24.7c-13.7,0.1-24.7-10.8-24.8-24.5
		C64.4,379.5,75.3,368.6,88.9,368.6z"/>
</g>
<g>
	<path class="st1" d="M88.9,368.6c13.6-0.1,24.7,10.9,24.7,24.4c0,13.7-10.8,24.7-24.3,24.7c-13.7,0.1-24.7-10.8-24.8-24.5
		C64.4,379.5,75.3,368.6,88.9,368.6z"/>
</g>
<g>
	<path class="st2" d="M88.9,368.6c13.6-0.1,24.7,10.9,24.7,24.4c0,13.7-10.8,24.7-24.3,24.7c-13.7,0.1-24.7-10.8-24.8-24.5
		C64.4,379.5,75.3,368.6,88.9,368.6z"/>
</g>
<g>
	<path class="st0" d="M89,368.6c9.2,0,16.7,2.2,16.7,4.8c0,2.7-7.3,4.9-16.4,4.9c-9.3,0-16.7-2.1-16.7-4.9
		C72.4,370.7,79.8,368.6,89,368.6z"/>
</g>
<g>
	<path class="st4" d="M57.2,514.4c0,12.8,0,25.7,0,38.5c0,0-0.1,45.8-0.1,69.1c0,9,6.4,12.8,13.1,13.3c8.6,0.6,14.7-5,14.7-13.6
		c0.1-14.5,0.1-62.8,0.1-81.6c0-2.7,1.2-3.9,3.9-4.1c2.9-0.2,4.3,1.3,4.3,4.6c0,32.7-0.1,47.4,0.1,80.1c0,2.8,0.8,6,2.1,8.4
		c2.9,5.2,9.9,7.3,16,5.5c6.4-1.9,9.8-6.4,9.8-13.1c0-41.8,0-65.6,0-107.3h-64C57.2,514.2,57.2,514.4,57.2,514.4z"/>
</g>
<g>
	<path class="st5" d="M149.2,454.2c0-2.2-0.2-4.5-0.7-6.7c-3.2-15.2-15.8-25.2-31.8-25.3c-18.2-0.1-36.5-0.2-54.7,0.1
		c-4.1,0-8.3,0.8-12.2,2.1c-13.1,4.5-20.8,16.1-20.8,31c0,7.2,0,14.5,0,21.7h20.5c0-4.4,0-8.7,0-13.1c0-2.4,1.8-4,4-3.8
		c2.3,0.1,3.6,1.8,3.6,4.8c0.1,16,0.1,31.9,0.2,47.9c0,0.9,0,1.8,0,2.7h64c0-15.9,0-31.8,0-47.7c0-1.1,0-2.2,0-3.4
		c0.1-2.8,1.4-4.4,3.7-4.4c2.4,0,3.7,1.6,3.7,4.5c0,4.1,0,8.3,0,12.4h20.5C149.2,469.5,149.2,461.9,149.2,454.2z"/>
</g>
<line class="st6" x1="29" y1="510.6" x2="49.4" y2="510.6"/>
<line class="st6" x1="29" y1="507.1" x2="49.4" y2="507.1"/>
<g>
	<rect x="772.5" y="478.1" class="st4" width="92.6" height="37.4"/>
	<polygon class="st4" points="905.9,496.8 855.3,547.3 855.3,446.2 	"/>
</g>
<g>
	<circle class="st7" cx="1320.8" cy="382.9" r="45.9"/>
	<circle class="st7" cx="1411.6" cy="382.9" r="45.9"/>
	<circle class="st7" cx="1366.7" cy="349.7" r="45.9"/>
	<rect x="1318.5" y="361" class="st7" width="92.7" height="67.8"/>
	<g>
		<path class="st4" d="M1287.4,476.3l3.9-0.9v-24.2l-3.9-0.9v-2.4h22.8v8.5h-2.9l-1.1-5.3h-6l-3.1,0.3v10.9h6.5l1-3.1h2.3v9.7h-2.3
			l-1-3.4h-6.5v9.9l4.4,0.9v2.5h-14.1L1287.4,476.3L1287.4,476.3z"/>
		<path class="st4" d="M1320.1,475.4c-2.5-2.7-3.7-6.6-3.7-11.6c0-3.2,0.6-6.1,1.9-8.6c1.2-2.5,3-4.5,5.4-6c2.4-1.4,5.1-2.2,8.3-2.2
			c4.5,0,8,1.4,10.5,4.1s3.7,6.6,3.7,11.6c0,3.3-0.6,6.2-1.8,8.7c-1.2,2.5-2.9,4.5-5.2,5.9c-2.3,1.4-5.1,2.1-8.4,2.1
			C1326.1,479.5,1322.6,478.1,1320.1,475.4z M1337.6,473.1c1.2-1.9,1.8-5,1.8-9.4c0-3.3-0.3-5.9-0.9-7.8s-1.5-3.3-2.7-4.1
			c-1.2-0.8-2.8-1.2-4.6-1.2c-1.8,0-3.3,0.3-4.5,1s-2.1,1.9-2.7,3.7c-0.6,1.8-1,4.3-1,7.5c0,4.7,0.7,8.1,2.1,10.1s3.6,3,6.6,3
			C1334.4,476,1336.4,475.1,1337.6,473.1z"/>
		<path class="st4" d="M1352.9,476.3l3.9-0.9v-24.2l-3.9-0.9v-2.4h13.5c3.6,0,6.3,0.6,8.2,1.9c1.9,1.3,2.8,3.4,2.8,6.4
			c0,4.2-2.2,7.1-6.5,8.8l6.3,10.5l3.4,0.9v2.4h-6.3c-0.7,0-1.2-0.1-1.7-0.4c-0.4-0.2-0.8-0.6-1.1-1.2l-6.1-11.2h-2.8v9.4l3.9,0.9
			v2.4H1353L1352.9,476.3L1352.9,476.3L1352.9,476.3z M1364.6,462.7c2.1,0,3.7-0.5,4.8-1.6c1.2-1.1,1.7-2.6,1.7-4.6
			s-0.5-3.4-1.4-4.2c-0.9-0.8-2.3-1.2-4.2-1.2c-1.2,0-2.2,0.1-3,0.2v11.4L1364.6,462.7L1364.6,462.7z"/>
		<path class="st4" d="M1410.9,469.2v8.1c-1.4,0.6-2.9,1.1-4.5,1.5c-1.7,0.4-3.7,0.6-6.3,0.6c-4.7,0-8.3-1.4-10.7-4.1
			c-2.4-2.7-3.6-6.6-3.6-11.7c0-3.1,0.6-5.9,1.9-8.4s3.1-4.5,5.4-6s4.9-2.2,7.9-2.2c1.9,0,3.7,0.1,5.4,0.4c1.7,0.3,3.1,0.6,4.2,0.9
			v8.2h-3.1l-1-5.1c-0.5-0.2-1.3-0.4-2.2-0.5c-1-0.2-2.1-0.3-3.3-0.3c-2.1,0-3.8,0.4-5,1.3c-1.2,0.8-2.1,2.2-2.6,4s-0.8,4.4-0.8,7.5
			c0,4.5,0.7,7.6,2.1,9.6c1.4,1.9,3.5,2.9,6.4,2.9c1.3,0,2.4-0.1,3.3-0.4c0.8-0.3,1.6-0.6,2.4-0.9l1-5.4H1410.9L1410.9,469.2z"/>
		<path class="st4" d="M1422.7,475.4v-24.2l-3.9-0.9v-2.4h23v8.5h-2.9l-1.1-5.3h-6.3l-3.1,0.3v10h5.8l1-3.1h2.3v9.7h-2.3l-1-3.3
			h-5.8v10.6c1.2,0.1,2.3,0.2,3.3,0.2h6.5l1.1-5.5h2.9v8.8h-23.5v-2.4L1422.7,475.4z"/>
	</g>
	<g>
		<path class="st8" d="M1337.1,423.2l10.4-2.4v-65.1l-10.4-2.4v-6.5h61.3v23h-7.8l-3.1-14.2h-16.2l-8.2,0.9v29.2h17.4l2.6-8.5h6.3
			v26.2h-6.3l-2.6-9.1h-17.4v26.5l11.8,2.3v6.8h-37.8L1337.1,423.2L1337.1,423.2z"/>
	</g>
</g>
<g>
	<path class="st9" d="M534.9,370c-0.1,15.6,12.4,28.2,28.1,28.3c15.7,0.1,28.4-12.5,28.4-28v-0.7c0.1-15.6-12.4-28.2-28.1-28.3
		c-15.7-0.1-28.4,12.5-28.4,28V370z"/>
</g>
<g>
	<path class="st1" d="M594.9,536.9c0-13.4,0-26.7,0-40.1c0-16,0.1-31.9,0.2-47.9c0-3,1.3-4.6,3.6-4.8c2.2-0.1,3.9,1.4,4,3.8
		c0.1,8.5,0,16.9,0,25.4c0,7,0.1,14.1,0.1,21.1c0,4.6-0.1,9.3-0.1,13.9c0,5.3,3.9,9.2,9.3,9.6c6,0.4,10.3-2.8,11-8.3
		c0.1-0.9,0.2-1.8,0.2-2.6c0-22.6,0-45.1,0-67.7c0-14.9-7.7-26.5-20.8-31c-3.9-1.3-8.1-2.1-12.2-2.1c-18.2-0.2-36.5-0.2-54.7-0.1
		c-16,0.1-28.6,10.2-31.8,25.3c-0.5,2.2-0.7,4.4-0.7,6.7c-0.1,23.1,0,46.2,0,69.3c0,5,1.9,8.1,5.9,9.7c4.2,1.7,9.1,0.7,12.2-2.5
		c2-2.1,2.5-4.7,2.5-7.5c0-8.4,0-16.8,0-25.2c0-11.1,0-22.2,0-33.4c0-2.9,1.3-4.5,3.7-4.5c2.2,0,3.6,1.6,3.7,4.4c0,1.1,0,2.2,0,3.4
		c0,57.3,0,114.5,0,171.8c0,6.7,3.4,11.2,9.8,13.1c6.1,1.8,13.1-0.3,16-5.5c1.4-2.5,2.1-5.6,2.1-8.4c0.1-32.7,0.1-65.4,0.1-98.1
		c0-3.3,1.4-4.8,4.3-4.6c2.7,0.2,3.9,1.4,3.9,4.1c0,18.7,0,37.4,0,56.1c0,14.5-0.1,28.9,0.1,43.4c0.1,8.6,6.2,14.2,14.7,13.6
		c6.7-0.5,13.1-4.3,13.1-13.3c0-23.3,0-46.6,0-69.8c0-5.8,0-11.5,0-17.3C595,536.9,595,536.9,594.9,536.9z"/>
</g>
<g>
	<path class="st1" d="M563.2,352.5c-13.6-0.1-24.7,10.9-24.7,24.4c0,13.7,10.8,24.7,24.3,24.7c13.7,0.1,24.7-10.8,24.8-24.5
		C587.7,363.5,576.9,352.6,563.2,352.5z"/>
</g>
<g>
	<path class="st1" d="M594.9,536.9c0-13.4,0-26.7,0-40.1c0-16,0.1-31.9,0.2-47.9c0-3,1.3-4.6,3.6-4.8c2.2-0.1,3.9,1.4,4,3.8
		c0.1,8.5,0,16.9,0,25.4c0,7,0.1,14.1,0.1,21.1c0,4.6-0.1,9.3-0.1,13.9c0,5.3,3.9,9.2,9.3,9.6c6,0.4,10.3-2.8,11-8.3
		c0.1-0.9,0.2-1.8,0.2-2.6c0-22.6,0-45.1,0-67.7c0-14.9-7.7-26.5-20.8-31c-3.9-1.3-8.1-2.1-12.2-2.1c-18.2-0.2-36.5-0.2-54.7-0.1
		c-16,0.1-28.6,10.2-31.8,25.3c-0.5,2.2-0.7,4.4-0.7,6.7c-0.1,23.1,0,46.2,0,69.3c0,5,1.9,8.1,5.9,9.7c4.2,1.7,9.1,0.7,12.2-2.5
		c2-2.1,2.5-4.7,2.5-7.5c0-8.4,0-16.8,0-25.2c0-11.1,0-22.2,0-33.4c0-2.9,1.3-4.5,3.7-4.5c2.2,0,3.6,1.6,3.7,4.4c0,1.1,0,2.2,0,3.4
		c0,57.3,0,114.5,0,171.8c0,6.7,3.4,11.2,9.8,13.1c6.1,1.8,13.1-0.3,16-5.5c1.4-2.5,2.1-5.6,2.1-8.4c0.1-32.7,0.1-65.4,0.1-98.1
		c0-3.3,1.4-4.8,4.3-4.6c2.7,0.2,3.9,1.4,3.9,4.1c0,18.7,0,37.4,0,56.1c0,14.5-0.1,28.9,0.1,43.4c0.1,8.6,6.2,14.2,14.7,13.6
		c6.7-0.5,13.1-4.3,13.1-13.3c0-23.3,0-46.6,0-69.8c0-5.8,0-11.5,0-17.3C595,536.9,595,536.9,594.9,536.9z"/>
</g>
<g>
	<path class="st1" d="M563.2,352.5c-13.6-0.1-24.7,10.9-24.7,24.4c0,13.7,10.8,24.7,24.3,24.7c13.7,0.1,24.7-10.8,24.8-24.5
		C587.7,363.5,576.9,352.6,563.2,352.5z"/>
</g>
<g>
	<path class="st2" d="M594.9,536.9c0-13.4,0-26.7,0-40.1c0-16,0.1-31.9,0.2-47.9c0-3,1.3-4.6,3.6-4.8c2.2-0.1,3.9,1.4,4,3.8
		c0.1,8.5,0,16.9,0,25.4c0,7,0.1,14.1,0.1,21.1c0,4.6-0.1,9.3-0.1,13.9c0,5.3,3.9,9.2,9.3,9.6c6,0.4,10.3-2.8,11-8.3
		c0.1-0.9,0.2-1.8,0.2-2.6c0-22.6,0-45.1,0-67.7c0-14.9-7.7-26.5-20.8-31c-3.9-1.3-8.1-2.1-12.2-2.1c-18.2-0.2-36.5-0.2-54.7-0.1
		c-16,0.1-28.6,10.2-31.8,25.3c-0.5,2.2-0.7,4.4-0.7,6.7c-0.1,23.1,0,46.2,0,69.3c0,5,1.9,8.1,5.9,9.7c4.2,1.7,9.1,0.7,12.2-2.5
		c2-2.1,2.5-4.7,2.5-7.5c0-8.4,0-16.8,0-25.2c0-11.1,0-22.2,0-33.4c0-2.9,1.3-4.5,3.7-4.5c2.2,0,3.6,1.6,3.7,4.4c0,1.1,0,2.2,0,3.4
		c0,57.3,0,114.5,0,171.8c0,6.7,3.4,11.2,9.8,13.1c6.1,1.8,13.1-0.3,16-5.5c1.4-2.5,2.1-5.6,2.1-8.4c0.1-32.7,0.1-65.4,0.1-98.1
		c0-3.3,1.4-4.8,4.3-4.6c2.7,0.2,3.9,1.4,3.9,4.1c0,18.7,0,37.4,0,56.1c0,14.5-0.1,28.9,0.1,43.4c0.1,8.6,6.2,14.2,14.7,13.6
		c6.7-0.5,13.1-4.3,13.1-13.3c0-23.3,0-46.6,0-69.8c0-5.8,0-11.5,0-17.3C595,536.9,595,536.9,594.9,536.9z"/>
</g>
<g>
	<path class="st3" d="M563.2,352.5c-13.6-0.1-24.7,10.9-24.7,24.4c0,13.7,10.8,24.7,24.3,24.7c13.7,0.1,24.7-10.8,24.8-24.5
		C587.7,363.5,576.9,352.6,563.2,352.5z"/>
</g>
<g>
	<path class="st2" d="M563.2,352.5c-13.6-0.1-24.7,10.9-24.7,24.4c0,13.7,10.8,24.7,24.3,24.7c13.7,0.1,24.7-10.8,24.8-24.5
		C587.7,363.5,576.9,352.6,563.2,352.5z"/>
</g>
<g>
	<path class="st1" d="M563.2,352.5c-13.6-0.1-24.7,10.9-24.7,24.4c0,13.7,10.8,24.7,24.3,24.7c13.7,0.1,24.7-10.8,24.8-24.5
		C587.7,363.5,576.9,352.6,563.2,352.5z"/>
</g>
<g>
	<path class="st1" d="M563.2,352.5c-13.6-0.1-24.7,10.9-24.7,24.4c0,13.7,10.8,24.7,24.3,24.7c13.7,0.1,24.7-10.8,24.8-24.5
		C587.7,363.5,576.9,352.6,563.2,352.5z"/>
</g>
<g>
	<path class="st2" d="M563.2,352.5c-13.6-0.1-24.7,10.9-24.7,24.4c0,13.7,10.8,24.7,24.3,24.7c13.7,0.1,24.7-10.8,24.8-24.5
		C587.7,363.5,576.9,352.6,563.2,352.5z"/>
</g>
<g>
	<path class="st9" d="M563.2,352.5c-9.2,0-16.7,2.2-16.7,4.8c0,2.7,7.3,4.9,16.4,4.9c9.3,0,16.7-2.1,16.7-4.9
		C579.7,354.7,572.4,352.5,563.2,352.5z"/>
</g>
<g>
	<circle class="st4" cx="306.1" cy="83.3" r="17.1"/>
</g>
<g>
	<circle class="st4" cx="309.8" cy="67.2" r="17.1"/>
</g>
<g>
	<circle class="st4" cx="347.1" cy="83.3" r="17.1"/>
</g>
<g>
	<circle class="st4" cx="343.4" cy="67.2" r="17.1"/>
</g>
<g>
	<path class="st4" d="M297.6,60.1c0-15.9,13.1-28.9,29-28.9c16.1,0,29,12.9,28.9,28.9V100h-57.9V60.1z"/>
</g>
<g>
	<path class="st10" d="M353.4,224.1c9.1,0,17.9,0,27.1,0c-1-3.7-2-7.1-2.9-10.4c-7.9-27.2-15.7-54.3-23.6-81.5
		c-0.8-2.7-1.2-5.4-1.7-8.2c-0.2-1.6,0.4-3.1,2.1-3.2c1.1,0,2.5,0.8,3.3,1.7c0.7,0.7,1,2,1.3,3c4.7,16.2,9.3,32.4,13.9,48.6
		c1.2,4.2,3,8,7.2,9.9c3.4,1.6,6.9,1.4,10-1c3.5-2.7,4.7-6.6,3.7-10.7c-1.5-6.4-3.5-12.8-5.4-19.1c-4.1-13.8-8.2-27.7-12.6-41.5
		c-1.9-6.1-4.9-11.6-9.4-16.2c-4.9-5-10.9-7.5-17.9-7.5c-14.8-0.1-29.6-0.2-44.4,0c-11.4,0.1-19.4,6.3-24,16.2
		c-3,6.5-5.2,13.4-7.3,20.2c-4.6,14.8-8.9,29.7-13.4,44.5c-1,3.4-1.4,6.8,0,10.1c2.9,7,12.1,8,16.9,1.8c1.3-1.7,2.4-3.8,3-6
		c4.8-16.5,9.5-33,14.2-49.5c0.3-1,0.7-2,1.2-2.8c0.8-1.3,1.9-2.5,3.7-1.8c1.8,0.7,2.2,2.3,2,3.9c-0.4,2.4-1,4.7-1.7,7
		c-8.7,30.4-17.5,60.8-26.3,91.2c-0.1,0.3-0.1,0.6-0.2,1.2c9,0,17.8,0,27,0c0,1.4,0,2.4,0,3.5c0,23,0,46.1,0,69.1
		c0,8.5,7.3,14.1,15.2,11.7c4.9-1.5,8-5.5,8.1-10.7c0.1-20.3,0-40.6,0-60.9c0-4.1,0-8.3,0-12.6c2.6,0,5.1,0,7.7,0c0,2.2,0,4.3,0,6.4
		c0,16.6,0,33.3,0,49.9c0,5.7,0,11.3,0,17c0,6,5.1,11.4,10.9,11.5c6.6,0.1,12.2-4.9,12.2-11.2c0.1-23.5,0-47,0-70.5
		C353.4,226.3,353.4,225.3,353.4,224.1z"/>
</g>
<g>
	<path class="st10" d="M350.1,60.1c0.1-13-10.4-23.4-23.5-23.5C313.7,36.6,303,47.1,303,60s10.6,23.6,23.4,23.7
		C339.5,83.8,350,73.3,350.1,60.1z"/>
</g>
<g>
	<path class="st3" d="M298.7,131.8c0.7-2.3,1.3-4.6,1.7-7c0.3-1.6-0.1-3.3-2-3.9c-1.8-0.7-2.9,0.5-3.7,1.8c-0.5,0.9-1,1.9-1.2,2.8
		c-4.6,16.2-9.2,32.4-13.9,48.6l-19.8-6.1c4.3-14.5,8.6-29,13.1-43.5c2.1-6.8,4.3-13.8,7.3-20.2c4.7-10,12.6-16.1,24-16.2
		c14.8-0.2,29.6-0.1,44.4,0c6.9,0,12.9,2.6,17.9,7.5c4.6,4.6,7.5,10.2,9.4,16.2c4.3,13.8,8.4,27.7,12.6,41.5c1.5,4.9,3,9.8,4.3,14.8
		l-19.7,6.1c-4.6-16.2-9.3-32.4-13.9-48.6c-0.3-1.1-0.6-2.3-1.3-3c-0.9-0.8-2.2-1.7-3.3-1.7c-1.7,0-2.4,1.6-2.1,3.2
		c0.4,2.7,0.9,5.5,1.7,8.2c7.8,27.2,15.7,54.3,23.6,81.5c1,3.3,1.9,6.7,2.9,10.4c-9.2,0-18,0-27.1,0h-54.1c-9.1,0-18,0-27,0
		c0.1-0.6,0.1-0.9,0.2-1.2C281.2,192.6,290,162.2,298.7,131.8z"/>
</g>
<g>
	<path class="st11" d="M287,172.3h78.6c4,13.8,8,27.6,12,41.4c1,3.3,1.9,6.7,2.9,10.4c-9.2,0-18,0-27.1,0h-54.1c-9.1,0-18,0-27,0
		c0.1-0.6,0.1-0.9,0.2-1.2C277.3,206.1,282.2,189.2,287,172.3z"/>
</g>
<g>
	<path class="st3" d="M594.9,498.4c0,12.8,0,25.7,0,38.5h0.1c0,5.8,0,11.5,0,17.3c0,23.3,0,46.6,0,69.8c0,9-6.4,12.8-13.1,13.3
		c-8.6,0.6-14.7-5-14.7-13.6c-0.1-14.5,0-28.9-0.1-43.4c0-18.7,0-37.4,0-56.1c0-2.7-1.2-3.9-3.9-4.1c-2.9-0.2-4.3,1.3-4.3,4.6
		c0,32.7,0.1,65.4-0.1,98.1c0,2.8-0.8,6-2.1,8.4c-2.9,5.2-9.9,7.3-16,5.5c-6.4-1.9-9.8-6.4-9.8-13.1c0-41.8,0-83.6,0-125.3
		L594.9,498.4L594.9,498.4z"/>
</g>
<g>
	<path class="st12" d="M523.5,448.6c0,11.1,0,22.2,0,33.4c0,7.1,0,14.1,0,21.2h-20.6c0-21.7,0-43.3,0-65c0-2.2,0.2-4.5,0.7-6.7
		c3.2-15.2,15.8-25.2,31.8-25.3c18.2-0.1,36.5-0.2,54.7,0.1c4.1,0,8.3,0.8,12.2,2.1c13.1,4.5,20.8,16.1,20.8,31
		c0,21.3,0,42.5,0,63.8h-20.4c0-2.9,0.1-5.8,0.1-8.7c0-7-0.1-14.1-0.1-21.1c0-8.5,0-16.9,0-25.4c0-2.4-1.8-4-4-3.8
		c-2.3,0.1-3.6,1.8-3.6,4.8c-0.1,16-0.1,31.9-0.2,47.9c0,0.9,0,1.8,0,2.7h-64c0-15.9,0-31.8,0-47.7c0-1.1,0-2.2,0-3.4
		c-0.1-2.8-1.4-4.4-3.7-4.4C524.8,444.1,523.5,445.7,523.5,448.6z"/>
</g>
<g>
	<path class="st13" d="M1116.5,423.8c51,0,92.4,41.4,92.4,92.4s-41.4,92.4-92.4,92.4s-92.4-41.4-92.4-92.4c0-30,14.3-56.6,36.4-73.5
		"/>
	<text transform="matrix(1 0 0 1 1072.5299 543.4539)" class="st4 st14 st15">89</text>
</g>
<g>
	<path class="st13" d="M1618.8,422.9c51,0,92.4,41.4,92.4,92.4s-41.4,92.4-92.4,92.4s-92.4-41.4-92.4-92.4"/>
	<text transform="matrix(1 0 0 1 1577.5132 542.5438)" class="st4 st14 st15">7</text>
	<text transform="matrix(1 0 0 1 1619.9132 542.5438)" class="st4 st14 st15">5</text>
</g>
<g>
	<path class="st13" d="M1366.1,48.8c51,0,92.4,41.4,92.4,92.4s-41.4,92.4-92.4,92.4s-92.4-41.4-92.4-92.4
		c0-38.3,23.3-71.1,56.4-85.1"/>
	<text transform="matrix(1 0 0 1 1320.7765 168.4324)" class="st4 st14 st15">96</text>
</g>
</svg>
