<?xml version="1.0" encoding="utf-8"?>
<!-- Generator: Adobe Illustrator 21.1.0, SVG Export Plug-In . SVG Version: 6.00 Build 0)  -->
<svg version="1.1" id="Ebene_1" xmlns="http://www.w3.org/2000/svg" xmlns:xlink="http://www.w3.org/1999/xlink" x="0px" y="0px"
	 viewBox="0 0 1139.6 839.3" style="enable-background:new 0 0 1139.6 839.3;" xml:space="preserve">
<style type="text/css">
	.st0{fill:none;stroke:#3579DB;stroke-width:24;stroke-miterlimit:10;}
	.st1{fill:none;stroke:#00A266;stroke-width:10;stroke-miterlimit:10;}
	.st2{fill:#3C3C3B;}
	.st3{font-family:'Faustina-SemiBold';}
	.st4{font-size:60px;}
	.st5{letter-spacing:2;}
	.st6{fill:#FFFFFF;stroke:#3C3C3B;stroke-width:7.8481;stroke-linecap:round;stroke-linejoin:round;stroke-miterlimit:10;}
	.st7{fill:none;stroke:#3C3C3B;stroke-width:7.2614;stroke-linecap:round;stroke-linejoin:round;stroke-miterlimit:10;}
	.st8{fill:none;stroke:#D0D0D0;stroke-width:7.2614;stroke-linecap:round;stroke-linejoin:round;stroke-miterlimit:10;}
</style>
<path class="st0" d="M710.3,427.5c-0.9,0-1.7,0-2.6,0.1c-16.8-58.7-70.9-101.7-135-101.7c-64.1,0-118.2,43-135,101.7
	c-1.8-0.1-3.6-0.1-5.4-0.1c-77.6,0-140.5,62.9-140.5,140.5c0,75.2,59.1,136.6,133.4,140.3l283.7,0.1c0.4,0,0.9,0,1.3,0
	c77.6,0,140.5-62.9,140.5-140.5C850.8,490.4,787.9,427.5,710.3,427.5z"/>
<g>
	<path class="st1" d="M118.2,505c35.1,0,63.6,28.5,63.6,63.6s-28.5,63.6-63.6,63.6s-63.6-28.5-63.6-63.6c0-20.7,9.8-39,25.1-50.6"/>
	<text transform="matrix(1 0 0 1 87.9205 587.402)" class="st2 st3 st4">89</text>
</g>
<g>
	<path class="st1" d="M1020.9,505c35.1,0,63.6,28.5,63.6,63.6s-28.5,63.6-63.6,63.6s-63.6-28.5-63.6-63.6"/>
	<text transform="matrix(1 0 0 1 992.4835 587.402)"><tspan x="0" y="0" class="st2 st3 st4 st5">7</tspan><tspan x="29.2" y="0" class="st2 st3 st4">5</tspan></text>
</g>
<g>
	<path class="st1" d="M566.7,95.3c35.1,0,63.6,28.5,63.6,63.6s-28.5,63.6-63.6,63.6s-63.6-28.5-63.6-63.6c0-26.4,16-49,38.9-58.6"/>
	<text transform="matrix(1 0 0 1 535.5343 177.696)" class="st2 st3 st4">96</text>
</g>
<g>
	<polygon class="st6" points="621,588.8 621,477.9 515,477.9 515,618.8 591,618.8 	"/>
	<polyline class="st7" points="620.8,586.4 588.1,586.4 588.1,619 	"/>
	<g>
		<line class="st8" x1="534.3" y1="497.9" x2="600.2" y2="497.9"/>
		<line class="st8" x1="534.3" y1="515.1" x2="600.2" y2="515.1"/>
		<line class="st8" x1="534.3" y1="532.3" x2="600.2" y2="532.3"/>
		<line class="st8" x1="534.3" y1="549.5" x2="600.2" y2="549.5"/>
		<line class="st8" x1="534.3" y1="566.7" x2="600.2" y2="566.7"/>
	</g>
</g>
<g>
	<rect x="253.7" y="547.6" class="st2" width="92.6" height="37.4"/>
	<polygon class="st2" points="387.1,566.3 336.6,616.9 336.6,515.8 	"/>
</g>
<g>
	
		<rect x="523.3" y="312.4" transform="matrix(-1.836970e-16 1 -1 -1.836970e-16 900.6779 -238.5446)" class="st2" width="92.6" height="37.4"/>
	<polygon class="st2" points="569.6,418.2 519.1,367.6 620.2,367.6 	"/>
</g>
<g>
	
		<rect x="795" y="547.6" transform="matrix(-1 -1.224647e-16 1.224647e-16 -1 1682.5106 1132.6407)" class="st2" width="92.6" height="37.4"/>
	<polygon class="st2" points="754.2,566.3 804.7,515.8 804.7,616.9 	"/>
</g>
</svg>
