<?xml version="1.0" encoding="utf-8"?>
<!-- Generator: Adobe Illustrator 21.1.0, SVG Export Plug-In . SVG Version: 6.00 Build 0)  -->
<svg version="1.1" id="Ebene_1" xmlns="http://www.w3.org/2000/svg" xmlns:xlink="http://www.w3.org/1999/xlink" x="0px" y="0px"
	 viewBox="0 0 434.9 433" style="enable-background:new 0 0 434.9 433;" xml:space="preserve">
<style type="text/css">
	.st0{fill:#FFFFFF;}
	.st1{enable-background:new    ;}
</style>
<path class="st0" d="M286.5,127.7c-0.4,0-0.9,0-1.3,0c-8.4-29.3-35.4-50.8-67.5-50.8c-32.1,0-59.1,21.5-67.5,50.9
	c-0.9,0-1.8-0.1-2.7-0.1c-38.8,0-70.2,31.4-70.2,70.2c0,38.5,30.9,69.7,69.3,70.2v0.1h25.9v-8.5l15.9-3.7v-99.7l-15.9-3.7v-10h93.8
	v35.1h-12l-4.7-21.8h-24.7l-12.6,1.4V202H239l3.9-12.9h9.6v40h-9.6l-3.9-13.9h-26.7v40.6l18,3.5v8.9h55.5v-0.1c0.2,0,0.4,0,0.6,0
	c38.8,0,70.2-31.4,70.2-70.2S325.3,127.7,286.5,127.7z"/>
<g class="st1">
	<path class="st0" d="M95.3,340.9l5.9-1.4v-37.1l-5.9-1.4v-3.7h34.9v13.1h-4.5l-1.8-8.1h-9.2l-4.7,0.5v16.6h9.9l1.5-4.8h3.6v14.9
		h-3.6l-1.5-5.2h-9.9v15.1l6.7,1.3v3.9H95.3V340.9z"/>
</g>
<g class="st1">
	<path class="st0" d="M145.3,339.6c-3.8-4.1-5.7-10.1-5.7-17.8c0-4.9,0.9-9.3,2.8-13.2s4.6-6.9,8.2-9.1c3.6-2.2,7.9-3.3,12.8-3.3
		c6.9,0,12.3,2.1,16.1,6.2c3.8,4.2,5.7,10.1,5.7,17.7c0,5-0.9,9.5-2.7,13.3c-1.8,3.9-4.5,6.9-8,9.1c-3.5,2.2-7.8,3.3-12.8,3.3
		C154.6,345.8,149.1,343.7,145.3,339.6z M172.2,336.1c1.8-2.9,2.8-7.7,2.8-14.3c0-5.1-0.5-9.1-1.4-12c-0.9-2.9-2.3-5-4.2-6.2
		c-1.9-1.2-4.2-1.9-7.1-1.9c-2.8,0-5,0.5-6.8,1.5c-1.8,1-3.2,2.9-4.1,5.6c-1,2.7-1.5,6.6-1.5,11.5c0,7.2,1.1,12.3,3.2,15.4
		c2.1,3.1,5.5,4.6,10.1,4.6C167.3,340.4,170.3,339,172.2,336.1z"/>
</g>
<g class="st1">
	<path class="st0" d="M195.5,340.9l5.9-1.4v-37.1l-5.9-1.4v-3.7h20.7c5.5,0,9.7,1,12.5,2.9c2.8,1.9,4.3,5.2,4.3,9.9
		c0,6.4-3.3,10.9-9.9,13.4l9.6,16.1l5.2,1.3v3.7h-9.7c-1,0-1.9-0.2-2.6-0.5c-0.7-0.4-1.2-1-1.7-1.8l-9.3-17.2h-4.2v14.4l5.9,1.4v3.7
		h-20.7V340.9z M213.4,320.1c3.2,0,5.6-0.8,7.4-2.5c1.8-1.7,2.7-4,2.7-7.1c0-3-0.7-5.1-2.1-6.4c-1.4-1.2-3.6-1.8-6.5-1.8
		c-1.8,0-3.3,0.1-4.5,0.4v17.4H213.4z"/>
	<path class="st0" d="M283.4,330.1v12.4c-2.1,0.9-4.4,1.7-6.9,2.3c-2.5,0.6-5.7,0.9-9.6,0.9c-7.3,0-12.7-2.1-16.3-6.2
		c-3.6-4.1-5.4-10.1-5.4-18c0-4.7,1-9,2.9-12.9c1.9-3.9,4.7-6.9,8.2-9.2c3.5-2.2,7.6-3.4,12.1-3.4c2.9,0,5.7,0.2,8.3,0.6
		c2.6,0.4,4.8,0.9,6.5,1.4v12.6h-4.8l-1.5-7.8c-0.8-0.3-1.9-0.6-3.4-0.8c-1.5-0.3-3.2-0.4-5-0.4c-3.2,0-5.8,0.6-7.6,1.9
		c-1.9,1.3-3.2,3.3-4.1,6.2c-0.8,2.8-1.2,6.7-1.2,11.5c0,6.8,1.1,11.7,3.2,14.6c2.1,2.9,5.4,4.4,9.9,4.4c2,0,3.7-0.2,5-0.6
		c1.3-0.4,2.5-0.9,3.6-1.4l1.6-8.2H283.4z"/>
	<path class="st0" d="M300.6,339.5v-37.1l-5.9-1.4v-3.7H330v13.1h-4.5l-1.8-8.1h-9.6l-4.7,0.5v15.3h8.9l1.5-4.8h3.6v14.8h-3.6
		l-1.5-5h-8.9v16.2c1.8,0.2,3.5,0.3,5,0.3h9.9l1.8-8.5h4.4v13.5h-35.9v-3.7L300.6,339.5z"/>
</g>
</svg>
