<?xml version="1.0" encoding="utf-8"?>
<!-- Generator: Adobe Illustrator 21.1.0, SVG Export Plug-In . SVG Version: 6.00 Build 0)  -->
<svg version="1.1" id="Ebene_1" xmlns="http://www.w3.org/2000/svg" xmlns:xlink="http://www.w3.org/1999/xlink" x="0px" y="0px"
	 viewBox="0 0 2367 433" style="enable-background:new 0 0 2367 433;" xml:space="preserve">
<style type="text/css">
	.st0{fill:#B5AEAC;}
	.st1{fill:#74F7F0;}
	.st2{fill:#F4CF92;}
	.st3{fill:#7694F4;}
	.st4{fill:#E677F2;}
	.st5{fill:#13E855;}
	.st6{fill:#3C3C3B;}
	.st7{fill:#EAEFF4;}
	.st8{fill:none;stroke:#3C3C3B;stroke-width:2;stroke-miterlimit:10;}
	.st9{fill:#CCA56D;}
	.st10{fill:#F9F043;}
	.st11{fill:#E8C197;}
	.st12{fill:#704C16;}
	.st13{fill:#A0773C;}
	.st14{fill:#97F2D4;}
	.st15{fill:#75DCFC;}
	.st16{fill:#FF7D08;}
	.st17{fill:#FF9906;}
</style>
<g>
	<path class="st0" d="M153.5,94.2c0.1,15.6-12.4,28.2-28.1,28.3c-15.7,0-28.4-12.5-28.4-28v-0.7c-0.1-15.6,12.4-28.2,28.1-28.3
		c15.7-0.1,28.4,12.5,28.4,28V94.2z"/>
</g>
<g>
	<path class="st1" d="M93.4,261.2c0-13.4,0-26.7,0-40.1c0-16-0.1-31.9-0.2-47.9c0-3-1.3-4.6-3.6-4.8c-2.2-0.1-3.9,1.4-4,3.8
		c-0.1,8.5,0,16.9,0,25.4c0,7-0.1,14.1-0.1,21.1c0,4.6,0.1,9.3,0.1,13.9c0,5.3-3.9,9.2-9.3,9.6c-6,0.4-10.3-2.8-11-8.3
		c-0.1-0.9-0.2-1.8-0.2-2.6c0-22.6,0-45.1,0-67.7c0-14.9,7.7-26.5,20.8-31c3.9-1.3,8.1-2.1,12.2-2.1c18.2-0.2,36.5-0.2,54.7-0.1
		c16,0.1,28.6,10.2,31.8,25.3c0.5,2.2,0.7,4.4,0.7,6.7c0.1,23.1,0,46.2,0,69.3c0,5-1.9,8.1-5.9,9.7c-4.2,1.7-9.1,0.7-12.2-2.5
		c-2-2.1-2.5-4.7-2.5-7.5c0-8.4,0-16.8,0-25.2c0-11.1,0-22.2,0-33.4c0-2.9-1.3-4.5-3.7-4.5c-2.2,0-3.6,1.6-3.7,4.4
		c0,1.1,0,2.2,0,3.4c0,57.3,0,114.5,0,171.8c0,6.7-3.4,11.2-9.8,13.1c-6.1,1.8-13.1-0.3-16-5.5c-1.4-2.5-2.1-5.6-2.1-8.4
		c-0.1-32.7-0.1-65.4-0.1-98.1c0-3.3-1.4-4.8-4.3-4.6c-2.7,0.2-3.9,1.4-3.9,4.1c0,18.7,0,37.4,0,56.1c0,14.5,0.1,28.9-0.1,43.4
		c-0.1,8.6-6.2,14.2-14.7,13.6c-6.7-0.5-13.1-4.3-13.1-13.3c0-23.3,0-46.6,0-69.8c0-5.8,0-11.5,0-17.3
		C93.3,261.2,93.4,261.2,93.4,261.2z"/>
</g>
<g>
	<path class="st1" d="M125.1,76.8c13.6-0.1,24.7,10.9,24.7,24.4c0,13.7-10.8,24.7-24.3,24.7c-13.7,0.1-24.7-10.8-24.8-24.5
		C100.6,87.7,111.5,76.8,125.1,76.8z"/>
</g>
<g>
	<path class="st1" d="M93.4,261.2c0-13.4,0-26.7,0-40.1c0-16-0.1-31.9-0.2-47.9c0-3-1.3-4.6-3.6-4.8c-2.2-0.1-3.9,1.4-4,3.8
		c-0.1,8.5,0,16.9,0,25.4c0,7-0.1,14.1-0.1,21.1c0,4.6,0.1,9.3,0.1,13.9c0,5.3-3.9,9.2-9.3,9.6c-6,0.4-10.3-2.8-11-8.3
		c-0.1-0.9-0.2-1.8-0.2-2.6c0-22.6,0-45.1,0-67.7c0-14.9,7.7-26.5,20.8-31c3.9-1.3,8.1-2.1,12.2-2.1c18.2-0.2,36.5-0.2,54.7-0.1
		c16,0.1,28.6,10.2,31.8,25.3c0.5,2.2,0.7,4.4,0.7,6.7c0.1,23.1,0,46.2,0,69.3c0,5-1.9,8.1-5.9,9.7c-4.2,1.7-9.1,0.7-12.2-2.5
		c-2-2.1-2.5-4.7-2.5-7.5c0-8.4,0-16.8,0-25.2c0-11.1,0-22.2,0-33.4c0-2.9-1.3-4.5-3.7-4.5c-2.2,0-3.6,1.6-3.7,4.4
		c0,1.1,0,2.2,0,3.4c0,57.3,0,114.5,0,171.8c0,6.7-3.4,11.2-9.8,13.1c-6.1,1.8-13.1-0.3-16-5.5c-1.4-2.5-2.1-5.6-2.1-8.4
		c-0.1-32.7-0.1-65.4-0.1-98.1c0-3.3-1.4-4.8-4.3-4.6c-2.7,0.2-3.9,1.4-3.9,4.1c0,18.7,0,37.4,0,56.1c0,14.5,0.1,28.9-0.1,43.4
		c-0.1,8.6-6.2,14.2-14.7,13.6c-6.7-0.5-13.1-4.3-13.1-13.3c0-23.3,0-46.6,0-69.8c0-5.8,0-11.5,0-17.3
		C93.3,261.2,93.4,261.2,93.4,261.2z"/>
</g>
<g>
	<path class="st1" d="M125.1,76.8c13.6-0.1,24.7,10.9,24.7,24.4c0,13.7-10.8,24.7-24.3,24.7c-13.7,0.1-24.7-10.8-24.8-24.5
		C100.6,87.7,111.5,76.8,125.1,76.8z"/>
</g>
<g>
	<path class="st2" d="M93.4,261.2c0-13.4,0-26.7,0-40.1c0-16-0.1-31.9-0.2-47.9c0-3-1.3-4.6-3.6-4.8c-2.2-0.1-3.9,1.4-4,3.8
		c-0.1,8.5,0,16.9,0,25.4c0,7-0.1,14.1-0.1,21.1c0,4.6,0.1,9.3,0.1,13.9c0,5.3-3.9,9.2-9.3,9.6c-6,0.4-10.3-2.8-11-8.3
		c-0.1-0.9-0.2-1.8-0.2-2.6c0-22.6,0-45.1,0-67.7c0-14.9,7.7-26.5,20.8-31c3.9-1.3,8.1-2.1,12.2-2.1c18.2-0.2,36.5-0.2,54.7-0.1
		c16,0.1,28.6,10.2,31.8,25.3c0.5,2.2,0.7,4.4,0.7,6.7c0.1,23.1,0,46.2,0,69.3c0,5-1.9,8.1-5.9,9.7c-4.2,1.7-9.1,0.7-12.2-2.5
		c-2-2.1-2.5-4.7-2.5-7.5c0-8.4,0-16.8,0-25.2c0-11.1,0-22.2,0-33.4c0-2.9-1.3-4.5-3.7-4.5c-2.2,0-3.6,1.6-3.7,4.4
		c0,1.1,0,2.2,0,3.4c0,57.3,0,114.5,0,171.8c0,6.7-3.4,11.2-9.8,13.1c-6.1,1.8-13.1-0.3-16-5.5c-1.4-2.5-2.1-5.6-2.1-8.4
		c-0.1-32.7-0.1-65.4-0.1-98.1c0-3.3-1.4-4.8-4.3-4.6c-2.7,0.2-3.9,1.4-3.9,4.1c0,18.7,0,37.4,0,56.1c0,14.5,0.1,28.9-0.1,43.4
		c-0.1,8.6-6.2,14.2-14.7,13.6c-6.7-0.5-13.1-4.3-13.1-13.3c0-23.3,0-46.6,0-69.8c0-5.8,0-11.5,0-17.3
		C93.3,261.2,93.4,261.2,93.4,261.2z"/>
</g>
<g>
	<path class="st3" d="M125.1,76.8c13.6-0.1,24.7,10.9,24.7,24.4c0,13.7-10.8,24.7-24.3,24.7c-13.7,0.1-24.7-10.8-24.8-24.5
		C100.6,87.7,111.5,76.8,125.1,76.8z"/>
</g>
<g>
	<path class="st2" d="M125.1,76.8c13.6-0.1,24.7,10.9,24.7,24.4c0,13.7-10.8,24.7-24.3,24.7c-13.7,0.1-24.7-10.8-24.8-24.5
		C100.6,87.7,111.5,76.8,125.1,76.8z"/>
</g>
<g>
	<path class="st1" d="M125.1,76.8c13.6-0.1,24.7,10.9,24.7,24.4c0,13.7-10.8,24.7-24.3,24.7c-13.7,0.1-24.7-10.8-24.8-24.5
		C100.6,87.7,111.5,76.8,125.1,76.8z"/>
</g>
<g>
	<path class="st1" d="M125.1,76.8c13.6-0.1,24.7,10.9,24.7,24.4c0,13.7-10.8,24.7-24.3,24.7c-13.7,0.1-24.7-10.8-24.8-24.5
		C100.6,87.7,111.5,76.8,125.1,76.8z"/>
</g>
<g>
	<path class="st2" d="M125.1,76.8c13.6-0.1,24.7,10.9,24.7,24.4c0,13.7-10.8,24.7-24.3,24.7c-13.7,0.1-24.7-10.8-24.8-24.5
		C100.6,87.7,111.5,76.8,125.1,76.8z"/>
</g>
<g>
	<path class="st0" d="M125.2,76.8c9.2,0,16.7,2.2,16.7,4.8c0,2.7-7.3,4.9-16.4,4.9c-9.3,0-16.7-2.1-16.7-4.9
		C108.6,78.9,116,76.8,125.2,76.8z"/>
</g>
<g>
	<path class="st3" d="M93.4,222.6c0,12.8,0,25.7,0,38.5h-0.1c0,5.8,0,11.5,0,17.3c0,23.3,0,46.6,0,69.8c0,9,6.4,12.8,13.1,13.3
		c8.6,0.6,14.7-5,14.7-13.6c0.1-14.5,0-28.9,0.1-43.4c0-18.7,0-37.4,0-56.1c0-2.7,1.2-3.9,3.9-4.1c2.9-0.2,4.3,1.3,4.3,4.6
		c0,32.7-0.1,65.4,0.1,98.1c0,2.8,0.8,6,2.1,8.4c2.9,5.2,9.9,7.3,16,5.5c6.4-1.9,9.8-6.4,9.8-13.1c0-41.8,0-83.6,0-125.3h-64
		C93.4,222.5,93.4,222.6,93.4,222.6z"/>
</g>
<g>
	<path class="st4" d="M164.9,172.9c0,11.1,0,22.2,0,33.4c0,7.1,0,14.1,0,21.2h20.6c0-21.7,0-43.3,0-65c0-2.2-0.2-4.5-0.7-6.7
		c-3.2-15.2-15.8-25.2-31.8-25.3c-18.2-0.1-36.5-0.2-54.7,0.1c-4.1,0-8.3,0.8-12.2,2.1c-13.1,4.5-20.8,16.1-20.8,31
		c0,21.3,0,42.5,0,63.8h20.4c0-2.9-0.1-5.8-0.1-8.7c0-7,0.1-14.1,0.1-21.1c0-8.5,0-16.9,0-25.4c0-2.4,1.8-4,4-3.8
		c2.3,0.1,3.6,1.8,3.6,4.8c0.1,16,0.1,31.9,0.2,47.9c0,0.9,0,1.8,0,2.7h64c0-15.9,0-31.8,0-47.7c0-1.1,0-2.2,0-3.4
		c0.1-2.8,1.4-4.4,3.7-4.4C163.6,168.4,164.9,170,164.9,172.9z"/>
</g>
<g>
	<path class="st5" d="M306.5,110.2c0.1,15.6-12.4,28.2-28.1,28.3S250,126,250,110.5v-0.7c-0.1-15.6,12.4-28.2,28.1-28.3
		c15.7-0.1,28.4,12.5,28.4,28V110.2z"/>
</g>
<g>
	<path class="st1" d="M246.4,277.2c0-13.4,0-26.7,0-40.1c0-16-0.1-31.9-0.2-47.9c0-3-1.3-4.6-3.6-4.8c-2.2-0.1-3.9,1.4-4,3.8
		c-0.1,8.5,0,16.9,0,25.4c0,7-0.1,4.1-0.1,11.1c0,4.6,0.1,13.3,0.1,17.9c0,5.3-3.9,9.2-9.3,9.6c-6,0.4-10.3-2.8-11-8.3
		c-0.1-0.9-0.2-1.8-0.2-2.6c0-22.6,0-39.1,0-61.7c0-14.9,7.7-26.5,20.8-31c3.9-1.3,8.1-2.1,12.2-2.1c18.2-0.2,36.5-0.2,54.7-0.1
		c16,0.1,28.6,10.2,31.8,25.3c0.5,2.2,0.7,4.4,0.7,6.7c0.1,23.1,0,40.2,0,63.3c0,5-1.9,8.1-5.9,9.7c-4.2,1.7-9.1,0.7-12.2-2.5
		c-2-2.1-2.5-4.7-2.5-7.5c0-8.4,0-10.8,0-19.2c0-11.1,0-22.2,0-33.4c0-2.9-1.3-4.5-3.7-4.5c-2.2,0-3.6,1.6-3.7,4.4
		c0,1.1,0,2.2,0,3.4c0,57.3,0,96.5,0,153.8c0,6.7-3.4,11.2-9.8,13.1c-6.1,1.8-13.1-0.3-16-5.5c-1.4-2.5-2.1-5.6-2.1-8.4
		c-0.1-32.7-0.1-47.4-0.1-80.1c0-3.3-1.4-4.8-4.3-4.6c-2.7,0.2-3.9,1.4-3.9,4.1c0,18.7,0,37.4,0,56.1c0,14.5,0.1,10.9-0.1,25.4
		c-0.1,8.6-6.2,14.2-14.7,13.6c-6.7-0.5-13.1-4.3-13.1-13.3c0-23.3,0-28.6,0-51.8c0-5.8,0-11.5,0-17.3
		C246.3,277.2,246.4,277.2,246.4,277.2z"/>
</g>
<g>
	<path class="st1" d="M278.1,92.8c13.6-0.1,24.7,10.9,24.7,24.4c0,13.7-10.8,24.7-24.3,24.7c-13.7,0.1-24.7-10.8-24.8-24.5
		C253.6,103.7,264.5,92.8,278.1,92.8z"/>
</g>
<g>
	<path class="st1" d="M246.4,277.2c0-13.4,0-26.7,0-40.1c0-16-0.1-31.9-0.2-47.9c0-3-1.3-4.6-3.6-4.8c-2.2-0.1-3.9,1.4-4,3.8
		c-0.1,8.5,0,16.9,0,25.4c0,7-0.1,4.1-0.1,11.1c0,4.6,0.1,13.3,0.1,17.9c0,5.3-3.9,9.2-9.3,9.6c-6,0.4-10.3-2.8-11-8.3
		c-0.1-0.9-0.2-1.8-0.2-2.6c0-22.6,0-39.1,0-61.7c0-14.9,7.7-26.5,20.8-31c3.9-1.3,8.1-2.1,12.2-2.1c18.2-0.2,36.5-0.2,54.7-0.1
		c16,0.1,28.6,10.2,31.8,25.3c0.5,2.2,0.7,4.4,0.7,6.7c0.1,23.1,0,40.2,0,63.3c0,5-1.9,8.1-5.9,9.7c-4.2,1.7-9.1,0.7-12.2-2.5
		c-2-2.1-2.5-4.7-2.5-7.5c0-8.4,0-10.8,0-19.2c0-11.1,0-22.2,0-33.4c0-2.9-1.3-4.5-3.7-4.5c-2.2,0-3.6,1.6-3.7,4.4
		c0,1.1,0,2.2,0,3.4c0,57.3,0,96.5,0,153.8c0,6.7-3.4,11.2-9.8,13.1c-6.1,1.8-13.1-0.3-16-5.5c-1.4-2.5-2.1-5.6-2.1-8.4
		c-0.1-32.7-0.1-47.4-0.1-80.1c0-3.3-1.4-4.8-4.3-4.6c-2.7,0.2-3.9,1.4-3.9,4.1c0,18.7,0,37.4,0,56.1c0,14.5,0.1,10.9-0.1,25.4
		c-0.1,8.6-6.2,14.2-14.7,13.6c-6.7-0.5-13.1-4.3-13.1-13.3c0-23.3,0-28.6,0-51.8c0-5.8,0-11.5,0-17.3
		C246.3,277.2,246.4,277.2,246.4,277.2z"/>
</g>
<g>
	<path class="st1" d="M278.1,92.8c13.6-0.1,24.7,10.9,24.7,24.4c0,13.7-10.8,24.7-24.3,24.7c-13.7,0.1-24.7-10.8-24.8-24.5
		C253.6,103.7,264.5,92.8,278.1,92.8z"/>
</g>
<g>
	<path class="st2" d="M246.4,277.2c0-13.4,0-26.7,0-40.1c0-16-0.1-31.9-0.2-47.9c0-3-1.3-4.6-3.6-4.8c-2.2-0.1-3.9,1.4-4,3.8
		c-0.1,8.5,0,16.9,0,25.4c0,7-0.1,4.1-0.1,11.1c0,4.6,0.1,13.3,0.1,17.9c0,5.3-3.9,9.2-9.3,9.6c-6,0.4-10.3-2.8-11-8.3
		c-0.1-0.9-0.2-1.8-0.2-2.6c0-22.6,0-39.1,0-61.7c0-14.9,7.7-26.5,20.8-31c3.9-1.3,8.1-2.1,12.2-2.1c18.2-0.2,36.5-0.2,54.7-0.1
		c16,0.1,28.6,10.2,31.8,25.3c0.5,2.2,0.7,4.4,0.7,6.7c0.1,23.1,0,40.2,0,63.3c0,5-1.9,8.1-5.9,9.7c-4.2,1.7-9.1,0.7-12.2-2.5
		c-2-2.1-2.5-4.7-2.5-7.5c0-8.4,0-10.8,0-19.2c0-11.1,0-22.2,0-33.4c0-2.9-1.3-4.5-3.7-4.5c-2.2,0-3.6,1.6-3.7,4.4
		c0,1.1,0,2.2,0,3.4c0,57.3,0,96.5,0,153.8c0,6.7-3.4,11.2-9.8,13.1c-6.1,1.8-13.1-0.3-16-5.5c-1.4-2.5-2.1-5.6-2.1-8.4
		c-0.1-32.7-0.1-47.4-0.1-80.1c0-3.3-1.4-4.8-4.3-4.6c-2.7,0.2-3.9,1.4-3.9,4.1c0,18.7,0,37.4,0,56.1c0,14.5,0.1,10.9-0.1,25.4
		c-0.1,8.6-6.2,14.2-14.7,13.6c-6.7-0.5-13.1-4.3-13.1-13.3c0-23.3,0-28.6,0-51.8c0-5.8,0-11.5,0-17.3
		C246.3,277.2,246.4,277.2,246.4,277.2z"/>
</g>
<g>
	<path class="st3" d="M278.1,92.8c13.6-0.1,24.7,10.9,24.7,24.4c0,13.7-10.8,24.7-24.3,24.7c-13.7,0.1-24.7-10.8-24.8-24.5
		C253.6,103.7,264.5,92.8,278.1,92.8z"/>
</g>
<g>
	<path class="st2" d="M278.1,92.8c13.6-0.1,24.7,10.9,24.7,24.4c0,13.7-10.8,24.7-24.3,24.7c-13.7,0.1-24.7-10.8-24.8-24.5
		C253.6,103.7,264.5,92.8,278.1,92.8z"/>
</g>
<g>
	<path class="st1" d="M278.1,92.8c13.6-0.1,24.7,10.9,24.7,24.4c0,13.7-10.8,24.7-24.3,24.7c-13.7,0.1-24.7-10.8-24.8-24.5
		C253.6,103.7,264.5,92.8,278.1,92.8z"/>
</g>
<g>
	<path class="st1" d="M278.1,92.8c13.6-0.1,24.7,10.9,24.7,24.4c0,13.7-10.8,24.7-24.3,24.7c-13.7,0.1-24.7-10.8-24.8-24.5
		C253.6,103.7,264.5,92.8,278.1,92.8z"/>
</g>
<g>
	<path class="st2" d="M278.1,92.8c13.6-0.1,24.7,10.9,24.7,24.4c0,13.7-10.8,24.7-24.3,24.7c-13.7,0.1-24.7-10.8-24.8-24.5
		C253.6,103.7,264.5,92.8,278.1,92.8z"/>
</g>
<g>
	<path class="st5" d="M278.1,92.8c9.2,0,16.7,2.2,16.7,4.8c0,2.7-7.3,4.9-16.4,4.9c-9.3,0-16.7-2.1-16.7-4.9
		C261.6,94.9,268.9,92.8,278.1,92.8z"/>
</g>
<g>
	<path class="st6" d="M246.4,238.6c0,12.8,0,25.7,0,38.5c0,0-0.1,45.8-0.1,69.1c0,9,6.4,12.8,13.1,13.3c8.6,0.6,14.7-5,14.7-13.6
		c0.1-14.5,0.1-62.8,0.1-81.6c0-2.7,1.2-3.9,3.9-4.1c2.9-0.2,4.3,1.3,4.3,4.6c0,32.7-0.1,47.4,0.1,80.1c0,2.8,0.8,6,2.1,8.4
		c2.9,5.2,9.9,7.3,16,5.5c6.4-1.9,9.8-6.4,9.8-13.1c0-41.8,0-65.6,0-107.3h-64V238.6z"/>
</g>
<g>
	<path class="st7" d="M338.4,178.4c0-2.2-0.2-4.5-0.7-6.7c-3.2-15.2-15.8-25.2-31.8-25.3c-18.2-0.1-36.5-0.2-54.7,0.1
		c-4.1,0-8.3,0.8-12.2,2.1c-13.1,4.5-20.8,16.1-20.8,31c0,7.2,0,14.5,0,21.7h20.5c0-4.4,0-8.7,0-13.1c0-2.4,1.8-4,4-3.8
		c2.3,0.1,3.6,1.8,3.6,4.8c0.1,16,0.1,31.9,0.2,47.9c0,0.9,0,1.8,0,2.7h64c0-15.9,0-31.8,0-47.7c0-1.1,0-2.2,0-3.4
		c0.1-2.8,1.4-4.4,3.7-4.4c2.4,0,3.7,1.6,3.7,4.5c0,4.1,0,8.3,0,12.4h20.5C338.4,193.7,338.4,186.1,338.4,178.4z"/>
</g>
<line class="st8" x1="218.2" y1="234.8" x2="238.6" y2="234.8"/>
<line class="st8" x1="218.2" y1="231.3" x2="238.6" y2="231.3"/>
<g>
	<path class="st9" d="M2210.5,89.2c-0.1,15.6,12.4,28.2,28.1,28.3c15.7,0.1,28.4-12.5,28.4-28v-0.7c0.1-15.6-12.4-28.2-28.1-28.3
		c-15.7-0.1-28.4,12.5-28.4,28V89.2z"/>
</g>
<g>
	<path class="st1" d="M2270.5,256.1c0-13.4,0-26.7,0-40.1c0-16,0.1-31.9,0.2-47.9c0-3,1.3-4.6,3.6-4.8c2.2-0.1,3.9,1.4,4,3.8
		c0.1,8.5,0,16.9,0,25.4c0,7,0.1,14.1,0.1,21.1c0,4.6-0.1,9.3-0.1,13.9c0,5.3,3.9,9.2,9.3,9.6c6,0.4,10.3-2.8,11-8.3
		c0.1-0.9,0.2-1.8,0.2-2.6c0-22.6,0-45.1,0-67.7c0-14.9-7.7-26.5-20.8-31c-3.9-1.3-8.1-2.1-12.2-2.1c-18.2-0.2-36.5-0.2-54.7-0.1
		c-16,0.1-28.6,10.2-31.8,25.3c-0.5,2.2-0.7,4.4-0.7,6.7c-0.1,23.1,0,46.2,0,69.3c0,5,1.9,8.1,5.9,9.7c4.2,1.7,9.1,0.7,12.2-2.5
		c2-2.1,2.5-4.7,2.5-7.5c0-8.4,0-16.8,0-25.2c0-11.1,0-22.2,0-33.4c0-2.9,1.3-4.5,3.7-4.5c2.2,0,3.6,1.6,3.7,4.4c0,1.1,0,2.2,0,3.4
		c0,57.3,0,114.5,0,171.8c0,6.7,3.4,11.2,9.8,13.1c6.1,1.8,13.1-0.3,16-5.5c1.4-2.5,2.1-5.6,2.1-8.4c0.1-32.7,0.1-65.4,0.1-98.1
		c0-3.3,1.4-4.8,4.3-4.6c2.7,0.2,3.9,1.4,3.9,4.1c0,18.7,0,37.4,0,56.1c0,14.5-0.1,28.9,0.1,43.4c0.1,8.6,6.2,14.2,14.7,13.6
		c6.7-0.5,13.1-4.3,13.1-13.3c0-23.3,0-46.6,0-69.8c0-5.8,0-11.5,0-17.3C2270.6,256.1,2270.6,256.1,2270.5,256.1z"/>
</g>
<g>
	<path class="st1" d="M2238.8,71.7c-13.6-0.1-24.7,10.9-24.7,24.4c0,13.7,10.8,24.7,24.3,24.7c13.7,0.1,24.7-10.8,24.8-24.5
		C2263.3,82.7,2252.5,71.8,2238.8,71.7z"/>
</g>
<g>
	<path class="st1" d="M2270.5,256.1c0-13.4,0-26.7,0-40.1c0-16,0.1-31.9,0.2-47.9c0-3,1.3-4.6,3.6-4.8c2.2-0.1,3.9,1.4,4,3.8
		c0.1,8.5,0,16.9,0,25.4c0,7,0.1,14.1,0.1,21.1c0,4.6-0.1,9.3-0.1,13.9c0,5.3,3.9,9.2,9.3,9.6c6,0.4,10.3-2.8,11-8.3
		c0.1-0.9,0.2-1.8,0.2-2.6c0-22.6,0-45.1,0-67.7c0-14.9-7.7-26.5-20.8-31c-3.9-1.3-8.1-2.1-12.2-2.1c-18.2-0.2-36.5-0.2-54.7-0.1
		c-16,0.1-28.6,10.2-31.8,25.3c-0.5,2.2-0.7,4.4-0.7,6.7c-0.1,23.1,0,46.2,0,69.3c0,5,1.9,8.1,5.9,9.7c4.2,1.7,9.1,0.7,12.2-2.5
		c2-2.1,2.5-4.7,2.5-7.5c0-8.4,0-16.8,0-25.2c0-11.1,0-22.2,0-33.4c0-2.9,1.3-4.5,3.7-4.5c2.2,0,3.6,1.6,3.7,4.4c0,1.1,0,2.2,0,3.4
		c0,57.3,0,114.5,0,171.8c0,6.7,3.4,11.2,9.8,13.1c6.1,1.8,13.1-0.3,16-5.5c1.4-2.5,2.1-5.6,2.1-8.4c0.1-32.7,0.1-65.4,0.1-98.1
		c0-3.3,1.4-4.8,4.3-4.6c2.7,0.2,3.9,1.4,3.9,4.1c0,18.7,0,37.4,0,56.1c0,14.5-0.1,28.9,0.1,43.4c0.1,8.6,6.2,14.2,14.7,13.6
		c6.7-0.5,13.1-4.3,13.1-13.3c0-23.3,0-46.6,0-69.8c0-5.8,0-11.5,0-17.3C2270.6,256.1,2270.6,256.1,2270.5,256.1z"/>
</g>
<g>
	<path class="st1" d="M2238.8,71.7c-13.6-0.1-24.7,10.9-24.7,24.4c0,13.7,10.8,24.7,24.3,24.7c13.7,0.1,24.7-10.8,24.8-24.5
		C2263.3,82.7,2252.5,71.8,2238.8,71.7z"/>
</g>
<g>
	<path class="st2" d="M2270.5,256.1c0-13.4,0-26.7,0-40.1c0-16,0.1-31.9,0.2-47.9c0-3,1.3-4.6,3.6-4.8c2.2-0.1,3.9,1.4,4,3.8
		c0.1,8.5,0,16.9,0,25.4c0,7,0.1,14.1,0.1,21.1c0,4.6-0.1,9.3-0.1,13.9c0,5.3,3.9,9.2,9.3,9.6c6,0.4,10.3-2.8,11-8.3
		c0.1-0.9,0.2-1.8,0.2-2.6c0-22.6,0-45.1,0-67.7c0-14.9-7.7-26.5-20.8-31c-3.9-1.3-8.1-2.1-12.2-2.1c-18.2-0.2-36.5-0.2-54.7-0.1
		c-16,0.1-28.6,10.2-31.8,25.3c-0.5,2.2-0.7,4.4-0.7,6.7c-0.1,23.1,0,46.2,0,69.3c0,5,1.9,8.1,5.9,9.7c4.2,1.7,9.1,0.7,12.2-2.5
		c2-2.1,2.5-4.7,2.5-7.5c0-8.4,0-16.8,0-25.2c0-11.1,0-22.2,0-33.4c0-2.9,1.3-4.5,3.7-4.5c2.2,0,3.6,1.6,3.7,4.4c0,1.1,0,2.2,0,3.4
		c0,57.3,0,114.5,0,171.8c0,6.7,3.4,11.2,9.8,13.1c6.1,1.8,13.1-0.3,16-5.5c1.4-2.5,2.1-5.6,2.1-8.4c0.1-32.7,0.1-65.4,0.1-98.1
		c0-3.3,1.4-4.8,4.3-4.6c2.7,0.2,3.9,1.4,3.9,4.1c0,18.7,0,37.4,0,56.1c0,14.5-0.1,28.9,0.1,43.4c0.1,8.6,6.2,14.2,14.7,13.6
		c6.7-0.5,13.1-4.3,13.1-13.3c0-23.3,0-46.6,0-69.8c0-5.8,0-11.5,0-17.3C2270.6,256.1,2270.6,256.1,2270.5,256.1z"/>
</g>
<g>
	<path class="st3" d="M2238.8,71.7c-13.6-0.1-24.7,10.9-24.7,24.4c0,13.7,10.8,24.7,24.3,24.7c13.7,0.1,24.7-10.8,24.8-24.5
		C2263.3,82.7,2252.5,71.8,2238.8,71.7z"/>
</g>
<g>
	<path class="st2" d="M2238.8,71.7c-13.6-0.1-24.7,10.9-24.7,24.4c0,13.7,10.8,24.7,24.3,24.7c13.7,0.1,24.7-10.8,24.8-24.5
		C2263.3,82.7,2252.5,71.8,2238.8,71.7z"/>
</g>
<g>
	<path class="st1" d="M2238.8,71.7c-13.6-0.1-24.7,10.9-24.7,24.4c0,13.7,10.8,24.7,24.3,24.7c13.7,0.1,24.7-10.8,24.8-24.5
		C2263.3,82.7,2252.5,71.8,2238.8,71.7z"/>
</g>
<g>
	<path class="st1" d="M2238.8,71.7c-13.6-0.1-24.7,10.9-24.7,24.4c0,13.7,10.8,24.7,24.3,24.7c13.7,0.1,24.7-10.8,24.8-24.5
		C2263.3,82.7,2252.5,71.8,2238.8,71.7z"/>
</g>
<g>
	<path class="st2" d="M2238.8,71.7c-13.6-0.1-24.7,10.9-24.7,24.4c0,13.7,10.8,24.7,24.3,24.7c13.7,0.1,24.7-10.8,24.8-24.5
		C2263.3,82.7,2252.5,71.8,2238.8,71.7z"/>
</g>
<g>
	<path class="st9" d="M2238.8,71.7c-9.2,0-16.7,2.2-16.7,4.8c0,2.7,7.3,4.9,16.4,4.9c9.3,0,16.7-2.1,16.7-4.9
		C2255.3,73.9,2248,71.7,2238.8,71.7z"/>
</g>
<g>
	<path class="st6" d="M1552.5,89.2c-0.1,15.6,12.4,28.2,28.1,28.3c15.7,0.1,28.4-12.5,28.4-28v-0.7c0.1-15.6-12.4-28.2-28.1-28.3
		s-28.4,12.5-28.4,28V89.2z"/>
</g>
<g>
	<path class="st10" d="M1722.5,107.4c0-15.9,13.1-28.9,29-28.9c16.1,0,29,12.9,28.9,28.9v39.9h-57.9V107.4z"/>
</g>
<g>
	<path class="st1" d="M1612.5,256.1c0-13.4,0-26.7,0-40.1c0-16,0.1-31.9,0.2-47.9c0-3,1.3-4.6,3.6-4.8c2.2-0.1,3.9,1.4,4,3.8
		c0.1,8.5,0,16.9,0,25.4c0,7,0.1,14.1,0.1,21.1c0,4.6-0.1,9.3-0.1,13.9c0,5.3,3.9,9.2,9.3,9.6c6,0.4,10.3-2.8,11-8.3
		c0.1-0.9,0.2-1.8,0.2-2.6c0-22.6,0-45.1,0-67.7c0-14.9-7.7-26.5-20.8-31c-3.9-1.3-8.1-2.1-12.2-2.1c-18.2-0.2-36.5-0.2-54.7-0.1
		c-16,0.1-28.6,10.2-31.8,25.3c-0.5,2.2-0.7,4.4-0.7,6.7c-0.1,23.1,0,46.2,0,69.3c0,5,1.9,8.1,5.9,9.7c4.2,1.7,9.1,0.7,12.2-2.5
		c2-2.1,2.5-4.7,2.5-7.5c0-8.4,0-16.8,0-25.2c0-11.1,0-22.2,0-33.4c0-2.9,1.3-4.5,3.7-4.5c2.2,0,3.6,1.6,3.7,4.4c0,1.1,0,2.2,0,3.4
		c0,57.3,0,114.5,0,171.8c0,6.7,3.4,11.2,9.8,13.1c6.1,1.8,13.1-0.3,16-5.5c1.4-2.5,2.1-5.6,2.1-8.4c0.1-32.7,0.1-65.4,0.1-98.1
		c0-3.3,1.4-4.8,4.3-4.6c2.7,0.2,3.9,1.4,3.9,4.1c0,18.7,0,37.4,0,56.1c0,14.5-0.1,28.9,0.1,43.4c0.1,8.6,6.2,14.2,14.7,13.6
		c6.7-0.5,13.1-4.3,13.1-13.3c0-23.3,0-46.6,0-69.8c0-5.8,0-11.5,0-17.3C1612.6,256.1,1612.6,256.1,1612.5,256.1z"/>
</g>
<g>
	<path class="st1" d="M1580.8,71.7c-13.6-0.1-24.7,10.9-24.7,24.4c0,13.7,10.8,24.7,24.3,24.7c13.7,0.1,24.7-10.8,24.8-24.5
		C1605.3,82.7,1594.5,71.8,1580.8,71.7z"/>
</g>
<g>
	<path class="st2" d="M1778.2,271.4c9.1,0,17.9,0,27.1,0c-1-3.7-2-7.1-2.9-10.4c-7.9-27.2-15.7-54.3-23.6-81.5
		c-0.8-2.7-1.2-5.4-1.7-8.2c-0.2-1.6,0.4-3.1,2.1-3.2c1.1,0,2.5,0.8,3.3,1.7c0.7,0.7,1,2,1.3,3c4.7,16.2,9.3,32.4,13.9,48.6
		c1.2,4.2,3,8,7.2,9.9c3.4,1.6,6.9,1.4,10-1c3.5-2.7,4.7-6.6,3.7-10.7c-1.5-6.4-3.5-12.8-5.4-19.1c-4.1-13.8-8.2-27.7-12.6-41.5
		c-1.9-6.1-4.9-11.6-9.4-16.2c-4.9-5-10.9-7.5-17.9-7.5c-14.8-0.1-29.6-0.2-44.4,0c-11.4,0.1-19.4,6.3-24,16.2
		c-3,6.5-5.2,13.4-7.3,20.2c-4.6,14.8-8.9,29.7-13.4,44.5c-1,3.4-1.4,6.8,0,10.1c2.9,7,12.1,8,16.9,1.8c1.3-1.7,2.4-3.8,3-6
		c4.8-16.5,9.5-33,14.2-49.5c0.3-1,0.7-2,1.2-2.8c0.8-1.3,1.9-2.5,3.7-1.8c1.8,0.7,2.2,2.3,2,3.9c-0.4,2.4-1,4.7-1.7,7
		c-8.7,30.4-17.5,60.8-26.3,91.2c-0.1,0.3-0.1,0.6-0.2,1.2c9,0,17.8,0,27,0c0,1.4,0,2.4,0,3.5c0,23,0,46.1,0,69.1
		c0,8.5,7.3,14.1,15.2,11.7c4.9-1.5,8-5.5,8.1-10.7c0.1-20.3,0-40.6,0-60.9c0-4.1,0-8.3,0-12.6c2.6,0,5.1,0,7.7,0c0,2.2,0,4.3,0,6.4
		c0,16.6,0,33.3,0,49.9c0,5.7,0,11.3,0,17c0,6,5.1,11.4,10.9,11.5c6.6,0.1,12.2-4.9,12.2-11.2c0.1-23.5,0-47,0-70.5
		C1778.2,273.6,1778.2,272.6,1778.2,271.4z"/>
</g>
<g>
	<path class="st1" d="M1775,107.4c0.1-13-10.4-23.4-23.5-23.5c-12.9,0-23.6,10.5-23.6,23.4s10.6,23.6,23.4,23.7
		C1764.4,131.1,1774.9,120.6,1775,107.4z"/>
</g>
<g>
	<path class="st1" d="M1612.5,256.1c0-13.4,0-26.7,0-40.1c0-16,0.1-31.9,0.2-47.9c0-3,1.3-4.6,3.6-4.8c2.2-0.1,3.9,1.4,4,3.8
		c0.1,8.5,0,16.9,0,25.4c0,7,0.1,14.1,0.1,21.1c0,4.6-0.1,9.3-0.1,13.9c0,5.3,3.9,9.2,9.3,9.6c6,0.4,10.3-2.8,11-8.3
		c0.1-0.9,0.2-1.8,0.2-2.6c0-22.6,0-45.1,0-67.7c0-14.9-7.7-26.5-20.8-31c-3.9-1.3-8.1-2.1-12.2-2.1c-18.2-0.2-36.5-0.2-54.7-0.1
		c-16,0.1-28.6,10.2-31.8,25.3c-0.5,2.2-0.7,4.4-0.7,6.7c-0.1,23.1,0,46.2,0,69.3c0,5,1.9,8.1,5.9,9.7c4.2,1.7,9.1,0.7,12.2-2.5
		c2-2.1,2.5-4.7,2.5-7.5c0-8.4,0-16.8,0-25.2c0-11.1,0-22.2,0-33.4c0-2.9,1.3-4.5,3.7-4.5c2.2,0,3.6,1.6,3.7,4.4c0,1.1,0,2.2,0,3.4
		c0,57.3,0,114.5,0,171.8c0,6.7,3.4,11.2,9.8,13.1c6.1,1.8,13.1-0.3,16-5.5c1.4-2.5,2.1-5.6,2.1-8.4c0.1-32.7,0.1-65.4,0.1-98.1
		c0-3.3,1.4-4.8,4.3-4.6c2.7,0.2,3.9,1.4,3.9,4.1c0,18.7,0,37.4,0,56.1c0,14.5-0.1,28.9,0.1,43.4c0.1,8.6,6.2,14.2,14.7,13.6
		c6.7-0.5,13.1-4.3,13.1-13.3c0-23.3,0-46.6,0-69.8c0-5.8,0-11.5,0-17.3C1612.6,256.1,1612.6,256.1,1612.5,256.1z"/>
</g>
<g>
	<path class="st1" d="M1580.8,71.7c-13.6-0.1-24.7,10.9-24.7,24.4c0,13.7,10.8,24.7,24.3,24.7c13.7,0.1,24.7-10.8,24.8-24.5
		C1605.3,82.7,1594.5,71.8,1580.8,71.7z"/>
</g>
<g>
	<path class="st2" d="M1612.5,256.1c0-13.4,0-26.7,0-40.1c0-16,0.1-31.9,0.2-47.9c0-3,1.3-4.6,3.6-4.8c2.2-0.1,3.9,1.4,4,3.8
		c0.1,8.5,0,16.9,0,25.4c0,7,0.1,14.1,0.1,21.1c0,4.6-0.1,9.3-0.1,13.9c0,5.3,3.9,9.2,9.3,9.6c6,0.4,10.3-2.8,11-8.3
		c0.1-0.9,0.2-1.8,0.2-2.6c0-22.6,0-45.1,0-67.7c0-14.9-7.7-26.5-20.8-31c-3.9-1.3-8.1-2.1-12.2-2.1c-18.2-0.2-36.5-0.2-54.7-0.1
		c-16,0.1-28.6,10.2-31.8,25.3c-0.5,2.2-0.7,4.4-0.7,6.7c-0.1,23.1,0,46.2,0,69.3c0,5,1.9,8.1,5.9,9.7c4.2,1.7,9.1,0.7,12.2-2.5
		c2-2.1,2.5-4.7,2.5-7.5c0-8.4,0-16.8,0-25.2c0-11.1,0-22.2,0-33.4c0-2.9,1.3-4.5,3.7-4.5c2.2,0,3.6,1.6,3.7,4.4c0,1.1,0,2.2,0,3.4
		c0,57.3,0,114.5,0,171.8c0,6.7,3.4,11.2,9.8,13.1c6.1,1.8,13.1-0.3,16-5.5c1.4-2.5,2.1-5.6,2.1-8.4c0.1-32.7,0.1-65.4,0.1-98.1
		c0-3.3,1.4-4.8,4.3-4.6c2.7,0.2,3.9,1.4,3.9,4.1c0,18.7,0,37.4,0,56.1c0,14.5-0.1,28.9,0.1,43.4c0.1,8.6,6.2,14.2,14.7,13.6
		c6.7-0.5,13.1-4.3,13.1-13.3c0-23.3,0-46.6,0-69.8c0-5.8,0-11.5,0-17.3C1612.6,256.1,1612.6,256.1,1612.5,256.1z"/>
</g>
<g>
	<path class="st3" d="M1580.8,71.7c-13.6-0.1-24.7,10.9-24.7,24.4c0,13.7,10.8,24.7,24.3,24.7c13.7,0.1,24.7-10.8,24.8-24.5
		C1605.3,82.7,1594.5,71.8,1580.8,71.7z"/>
</g>
<g>
	<path class="st2" d="M1580.8,71.7c-13.6-0.1-24.7,10.9-24.7,24.4c0,13.7,10.8,24.7,24.3,24.7c13.7,0.1,24.7-10.8,24.8-24.5
		C1605.3,82.7,1594.5,71.8,1580.8,71.7z"/>
</g>
<g>
	<path class="st1" d="M1580.8,71.7c-13.6-0.1-24.7,10.9-24.7,24.4c0,13.7,10.8,24.7,24.3,24.7c13.7,0.1,24.7-10.8,24.8-24.5
		C1605.3,82.7,1594.5,71.8,1580.8,71.7z"/>
</g>
<g>
	<path class="st1" d="M1580.8,71.7c-13.6-0.1-24.7,10.9-24.7,24.4c0,13.7,10.8,24.7,24.3,24.7c13.7,0.1,24.7-10.8,24.8-24.5
		C1605.3,82.7,1594.5,71.8,1580.8,71.7z"/>
</g>
<g>
	<path class="st2" d="M1580.8,71.7c-13.6-0.1-24.7,10.9-24.7,24.4c0,13.7,10.8,24.7,24.3,24.7c13.7,0.1,24.7-10.8,24.8-24.5
		C1605.3,82.7,1594.5,71.8,1580.8,71.7z"/>
</g>
<g>
	<path class="st6" d="M1580.8,71.7c-9.2,0-16.7,2.2-16.7,4.8c0,2.7,7.3,4.9,16.4,4.9c9.3,0,16.7-2.1,16.7-4.9
		C1597.3,73.9,1590,71.7,1580.8,71.7z"/>
</g>
<g>
	<path class="st2" d="M1775,107.4c0.1-13-10.4-23.4-23.5-23.5c-12.9,0-23.6,10.5-23.6,23.4s10.6,23.6,23.4,23.7
		C1764.4,131.1,1774.9,120.6,1775,107.4z"/>
</g>
<g>
	<circle class="st6" cx="2054.3" cy="130.6" r="17.1"/>
</g>
<g>
	<circle class="st6" cx="2058" cy="114.5" r="17.1"/>
</g>
<g>
	<circle class="st6" cx="2095.3" cy="130.6" r="17.1"/>
</g>
<g>
	<circle class="st6" cx="2091.6" cy="114.5" r="17.1"/>
</g>
<g>
	<path class="st6" d="M2045.8,107.4c0-15.9,13.1-28.9,29-28.9c16.1,0,29,12.9,28.9,28.9v39.9h-57.9L2045.8,107.4L2045.8,107.4z"/>
</g>
<g>
	<path class="st2" d="M2101.5,271.4c9.1,0,17.9,0,27.1,0c-1-3.7-2-7.1-2.9-10.4c-7.9-27.2-15.7-54.3-23.6-81.5
		c-0.8-2.7-1.2-5.4-1.7-8.2c-0.2-1.6,0.4-3.1,2.1-3.2c1.1,0,2.5,0.8,3.3,1.7c0.7,0.7,1,2,1.3,3c4.7,16.2,9.3,32.4,13.9,48.6
		c1.2,4.2,3,8,7.2,9.9c3.4,1.6,6.9,1.4,10-1c3.5-2.7,4.7-6.6,3.7-10.7c-1.5-6.4-3.5-12.8-5.4-19.1c-4.1-13.8-8.2-27.7-12.6-41.5
		c-1.9-6.1-4.9-11.6-9.4-16.2c-4.9-5-10.9-7.5-17.9-7.5c-14.8-0.1-29.6-0.2-44.4,0c-11.4,0.1-19.4,6.3-24,16.2
		c-3,6.5-5.2,13.4-7.3,20.2c-4.6,14.8-8.9,29.7-13.4,44.5c-1,3.4-1.4,6.8,0,10.1c2.9,7,12.1,8,16.9,1.8c1.3-1.7,2.4-3.8,3-6
		c4.8-16.5,9.5-33,14.2-49.5c0.3-1,0.7-2,1.2-2.8c0.8-1.3,1.9-2.5,3.7-1.8c1.8,0.7,2.2,2.3,2,3.9c-0.4,2.4-1,4.7-1.7,7
		c-8.7,30.4-17.5,60.8-26.3,91.2c-0.1,0.3-0.1,0.6-0.2,1.2c9,0,17.8,0,27,0c0,1.4,0,2.4,0,3.5c0,23,0,46.1,0,69.1
		c0,8.5,7.3,14.1,15.2,11.7c4.9-1.5,8-5.5,8.1-10.7c0.1-20.3,0-40.6,0-60.9c0-4.1,0-8.3,0-12.6c2.6,0,5.1,0,7.7,0c0,2.2,0,4.3,0,6.4
		c0,16.6,0,33.3,0,49.9c0,5.7,0,11.3,0,17c0,6,5.1,11.4,10.9,11.5c6.6,0.1,12.2-4.9,12.2-11.2c0.1-23.5,0-47,0-70.5
		C2101.5,273.6,2101.5,272.6,2101.5,271.4z"/>
</g>
<g>
	<path class="st2" d="M2098.3,107.4c0.1-13-10.4-23.4-23.5-23.5c-12.9,0-23.6,10.5-23.6,23.4s10.6,23.6,23.4,23.7
		C2087.7,131.1,2098.2,120.6,2098.3,107.4z"/>
</g>
<g>
	<path class="st1" d="M640.2,256.1c0-13.4,0-26.7,0-40.1c0-16,0.1-31.9,0.2-47.9c0-3,1.3-4.6,3.6-4.8c2.2-0.1,3.9,1.4,4,3.8
		c0.1,8.5,0,16.9,0,25.4c0,7,0.1,14.1,0.1,21.1c0,4.6-0.1,9.3-0.1,13.9c0,5.3,3.9,9.2,9.3,9.6c6,0.4,10.3-2.8,11-8.3
		c0.1-0.9,0.2-1.8,0.2-2.6c0-22.6,0-45.1,0-67.7c0-14.9-7.7-26.5-20.8-31c-3.9-1.3-8.1-2.1-12.2-2.1c-18.2-0.2-36.5-0.2-54.7-0.1
		c-16,0.1-28.6,10.2-31.8,25.3c-0.5,2.2-0.7,4.4-0.7,6.7c-0.1,23.1,0,46.2,0,69.3c0,5,1.9,8.1,5.9,9.7c4.2,1.7,9.1,0.7,12.2-2.5
		c2-2.1,2.5-4.7,2.5-7.5c0-8.4,0-16.8,0-25.2c0-11.1,0-22.2,0-33.4c0-2.9,1.3-4.5,3.7-4.5c2.2,0,3.6,1.6,3.7,4.4c0,1.1,0,2.2,0,3.4
		c0,57.3,0,114.5,0,171.8c0,6.7,3.4,11.2,9.8,13.1c6.1,1.8,13.1-0.3,16-5.5c1.4-2.5,2.1-5.6,2.1-8.4c0.1-32.7,0.1-65.4,0.1-98.1
		c0-3.3,1.4-4.8,4.3-4.6c2.7,0.2,3.9,1.4,3.9,4.1c0,18.7,0,37.4,0,56.1c0,14.5-0.1,28.9,0.1,43.4c0.1,8.6,6.2,14.2,14.7,13.6
		c6.7-0.5,13.1-4.3,13.1-13.3c0-23.3,0-46.6,0-69.8c0-5.8,0-11.5,0-17.3C640.2,256.1,640.2,256.1,640.2,256.1z"/>
</g>
<g>
	<path class="st1" d="M608.5,71.7c-13.6-0.1-24.7,10.9-24.7,24.4c0,13.7,10.8,24.7,24.3,24.7c13.7,0.1,24.7-10.8,24.8-24.5
		C633,82.7,622.1,71.8,608.5,71.7z"/>
</g>
<g>
	<path class="st1" d="M640.2,256.1c0-13.4,0-26.7,0-40.1c0-16,0.1-31.9,0.2-47.9c0-3,1.3-4.6,3.6-4.8c2.2-0.1,3.9,1.4,4,3.8
		c0.1,8.5,0,16.9,0,25.4c0,7,0.1,14.1,0.1,21.1c0,4.6-0.1,9.3-0.1,13.9c0,5.3,3.9,9.2,9.3,9.6c6,0.4,10.3-2.8,11-8.3
		c0.1-0.9,0.2-1.8,0.2-2.6c0-22.6,0-45.1,0-67.7c0-14.9-7.7-26.5-20.8-31c-3.9-1.3-8.1-2.1-12.2-2.1c-18.2-0.2-36.5-0.2-54.7-0.1
		c-16,0.1-28.6,10.2-31.8,25.3c-0.5,2.2-0.7,4.4-0.7,6.7c-0.1,23.1,0,46.2,0,69.3c0,5,1.9,8.1,5.9,9.7c4.2,1.7,9.1,0.7,12.2-2.5
		c2-2.1,2.5-4.7,2.5-7.5c0-8.4,0-16.8,0-25.2c0-11.1,0-22.2,0-33.4c0-2.9,1.3-4.5,3.7-4.5c2.2,0,3.6,1.6,3.7,4.4c0,1.1,0,2.2,0,3.4
		c0,57.3,0,114.5,0,171.8c0,6.7,3.4,11.2,9.8,13.1c6.1,1.8,13.1-0.3,16-5.5c1.4-2.5,2.1-5.6,2.1-8.4c0.1-32.7,0.1-65.4,0.1-98.1
		c0-3.3,1.4-4.8,4.3-4.6c2.7,0.2,3.9,1.4,3.9,4.1c0,18.7,0,37.4,0,56.1c0,14.5-0.1,28.9,0.1,43.4c0.1,8.6,6.2,14.2,14.7,13.6
		c6.7-0.5,13.1-4.3,13.1-13.3c0-23.3,0-46.6,0-69.8c0-5.8,0-11.5,0-17.3C640.2,256.1,640.2,256.1,640.2,256.1z"/>
</g>
<g>
	<path class="st1" d="M608.5,71.7c-13.6-0.1-24.7,10.9-24.7,24.4c0,13.7,10.8,24.7,24.3,24.7c13.7,0.1,24.7-10.8,24.8-24.5
		C633,82.7,622.1,71.8,608.5,71.7z"/>
</g>
<g>
	<path class="st11" d="M640.2,256.1c0-13.4,0-26.7,0-40.1c0-16,0.1-31.9,0.2-47.9c0-3,1.3-4.6,3.6-4.8c2.2-0.1,3.9,1.4,4,3.8
		c0.1,8.5,0,16.9,0,25.4c0,7,0.1,14.1,0.1,21.1c0,4.6-0.1,9.3-0.1,13.9c0,5.3,3.9,9.2,9.3,9.6c6,0.4,10.3-2.8,11-8.3
		c0.1-0.9,0.2-1.8,0.2-2.6c0-22.6,0-45.1,0-67.7c0-14.9-7.7-26.5-20.8-31c-3.9-1.3-8.1-2.1-12.2-2.1c-18.2-0.2-36.5-0.2-54.7-0.1
		c-16,0.1-28.6,10.2-31.8,25.3c-0.5,2.2-0.7,4.4-0.7,6.7c-0.1,23.1,0,46.2,0,69.3c0,5,1.9,8.1,5.9,9.7c4.2,1.7,9.1,0.7,12.2-2.5
		c2-2.1,2.5-4.7,2.5-7.5c0-8.4,0-16.8,0-25.2c0-11.1,0-22.2,0-33.4c0-2.9,1.3-4.5,3.7-4.5c2.2,0,3.6,1.6,3.7,4.4c0,1.1,0,2.2,0,3.4
		c0,57.3,0,114.5,0,171.8c0,6.7,3.4,11.2,9.8,13.1c6.1,1.8,13.1-0.3,16-5.5c1.4-2.5,2.1-5.6,2.1-8.4c0.1-32.7,0.1-65.4,0.1-98.1
		c0-3.3,1.4-4.8,4.3-4.6c2.7,0.2,3.9,1.4,3.9,4.1c0,18.7,0,37.4,0,56.1c0,14.5-0.1,28.9,0.1,43.4c0.1,8.6,6.2,14.2,14.7,13.6
		c6.7-0.5,13.1-4.3,13.1-13.3c0-23.3,0-46.6,0-69.8c0-5.8,0-11.5,0-17.3C640.2,256.1,640.2,256.1,640.2,256.1z"/>
</g>
<g>
	<path class="st3" d="M608.5,71.7c-13.6-0.1-24.7,10.9-24.7,24.4c0,13.7,10.8,24.7,24.3,24.7c13.7,0.1,24.7-10.8,24.8-24.5
		C633,82.7,622.1,71.8,608.5,71.7z"/>
</g>
<g>
	<path class="st2" d="M608.5,71.7c-13.6-0.1-24.7,10.9-24.7,24.4c0,13.7,10.8,24.7,24.3,24.7c13.7,0.1,24.7-10.8,24.8-24.5
		C633,82.7,622.1,71.8,608.5,71.7z"/>
</g>
<g>
	<path class="st1" d="M608.5,71.7c-13.6-0.1-24.7,10.9-24.7,24.4c0,13.7,10.8,24.7,24.3,24.7c13.7,0.1,24.7-10.8,24.8-24.5
		C633,82.7,622.1,71.8,608.5,71.7z"/>
</g>
<g>
	<path class="st1" d="M608.5,71.7c-13.6-0.1-24.7,10.9-24.7,24.4c0,13.7,10.8,24.7,24.3,24.7c13.7,0.1,24.7-10.8,24.8-24.5
		C633,82.7,622.1,71.8,608.5,71.7z"/>
</g>
<g>
	<path class="st11" d="M608.5,71.7c-13.6-0.1-24.7,10.9-24.7,24.4c0,13.7,10.8,24.7,24.3,24.7c13.7,0.1,24.7-10.8,24.8-24.5
		C633,82.7,622.1,71.8,608.5,71.7z"/>
</g>
<g>
	<path class="st9" d="M907,89.2c-0.1,15.6,12.4,28.2,28.1,28.3c15.7,0.1,28.4-12.5,28.4-28v-0.7c0.1-15.6-12.4-28.2-28.1-28.3
		C919.7,60.4,907,73,907,88.5V89.2z"/>
</g>
<g>
	<path class="st9" d="M1077.1,107.4c0-15.9,13.1-28.9,29-28.9c16.1,0,29,12.9,28.9,28.9v39.9h-57.9V107.4z"/>
</g>
<g>
	<path class="st1" d="M967.1,256.1c0-13.4,0-26.7,0-40.1c0-16,0.1-31.9,0.2-47.9c0-3,1.3-4.6,3.6-4.8c2.2-0.1,3.9,1.4,4,3.8
		c0.1,8.5,0,16.9,0,25.4c0,7,0.1,14.1,0.1,21.1c0,4.6-0.1,9.3-0.1,13.9c0,5.3,3.9,9.2,9.3,9.6c6,0.4,10.3-2.8,11-8.3
		c0.1-0.9,0.2-1.8,0.2-2.6c0-22.6,0-45.1,0-67.7c0-14.9-7.7-26.5-20.8-31c-3.9-1.3-8.1-2.1-12.2-2.1c-18.2-0.2-36.5-0.2-54.7-0.1
		c-16,0.1-28.6,10.2-31.8,25.3c-0.5,2.2-0.7,4.4-0.7,6.7c-0.1,23.1,0,46.2,0,69.3c0,5,1.9,8.1,5.9,9.7c4.2,1.7,9.1,0.7,12.2-2.5
		c2-2.1,2.5-4.7,2.5-7.5c0-8.4,0-16.8,0-25.2c0-11.1,0-22.2,0-33.4c0-2.9,1.3-4.5,3.7-4.5c2.2,0,3.6,1.6,3.7,4.4c0,1.1,0,2.2,0,3.4
		c0,57.3,0,114.5,0,171.8c0,6.7,3.4,11.2,9.8,13.1c6.1,1.8,13.1-0.3,16-5.5c1.4-2.5,2.1-5.6,2.1-8.4c0.1-32.7,0.1-65.4,0.1-98.1
		c0-3.3,1.4-4.8,4.3-4.6c2.7,0.2,3.9,1.4,3.9,4.1c0,18.7,0,37.4,0,56.1c0,14.5-0.1,28.9,0.1,43.4c0.1,8.6,6.2,14.2,14.7,13.6
		c6.7-0.5,13.1-4.3,13.1-13.3c0-23.3,0-46.6,0-69.8c0-5.8,0-11.5,0-17.3C967.2,256.1,967.2,256.1,967.1,256.1z"/>
</g>
<g>
	<path class="st1" d="M935.4,71.7c-13.6-0.1-24.7,10.9-24.7,24.4c0,13.7,10.8,24.7,24.3,24.7c13.7,0.1,24.7-10.8,24.8-24.5
		C959.9,82.7,949,71.8,935.4,71.7z"/>
</g>
<g>
	<path class="st2" d="M1132.8,271.4c9.1,0,17.9,0,27.1,0c-1-3.7-2-7.1-2.9-10.4c-7.9-27.2-15.7-54.3-23.6-81.5
		c-0.8-2.7-1.2-5.4-1.7-8.2c-0.2-1.6,0.4-3.1,2.1-3.2c1.1,0,2.5,0.8,3.3,1.7c0.7,0.7,1,2,1.3,3c4.7,16.2,9.3,32.4,13.9,48.6
		c1.2,4.2,3,8,7.2,9.9c3.4,1.6,6.9,1.4,10-1c3.5-2.7,4.7-6.6,3.7-10.7c-1.5-6.4-3.5-12.8-5.4-19.1c-4.1-13.8-8.2-27.7-12.6-41.5
		c-1.9-6.1-4.9-11.6-9.4-16.2c-4.9-5-10.9-7.5-17.9-7.5c-14.8-0.1-29.6-0.2-44.4,0c-11.4,0.1-19.4,6.3-24,16.2
		c-3,6.5-5.2,13.4-7.3,20.2c-4.6,14.8-8.9,29.7-13.4,44.5c-1,3.4-1.4,6.8,0,10.1c2.9,7,12.1,8,16.9,1.8c1.3-1.7,2.4-3.8,3-6
		c4.8-16.5,9.5-33,14.2-49.5c0.3-1,0.7-2,1.2-2.8c0.8-1.3,1.9-2.5,3.7-1.8c1.8,0.7,2.2,2.3,2,3.9c-0.4,2.4-1,4.7-1.7,7
		c-8.7,30.4-17.5,60.8-26.3,91.2c-0.1,0.3-0.1,0.6-0.2,1.2c9,0,17.8,0,27,0c0,1.4,0,2.4,0,3.5c0,23,0,46.1,0,69.1
		c0,8.5,7.3,14.1,15.2,11.7c4.9-1.5,8-5.5,8.1-10.7c0.1-20.3,0-40.6,0-60.9c0-4.1,0-8.3,0-12.6c2.6,0,5.1,0,7.7,0c0,2.2,0,4.3,0,6.4
		c0,16.6,0,33.3,0,49.9c0,5.7,0,11.3,0,17c0,6,5.1,11.4,10.9,11.5c6.6,0.1,12.2-4.9,12.2-11.2c0.1-23.5,0-47,0-70.5
		C1132.8,273.6,1132.8,272.6,1132.8,271.4z"/>
</g>
<g>
	<path class="st1" d="M1129.6,107.4c0.1-13-10.4-23.4-23.5-23.5c-12.9,0-23.6,10.5-23.6,23.4s10.6,23.6,23.4,23.7
		C1119,131.1,1129.5,120.6,1129.6,107.4z"/>
</g>
<g>
	<path class="st1" d="M967.1,256.1c0-13.4,0-26.7,0-40.1c0-16,0.1-31.9,0.2-47.9c0-3,1.3-4.6,3.6-4.8c2.2-0.1,3.9,1.4,4,3.8
		c0.1,8.5,0,16.9,0,25.4c0,7,0.1,14.1,0.1,21.1c0,4.6-0.1,9.3-0.1,13.9c0,5.3,3.9,9.2,9.3,9.6c6,0.4,10.3-2.8,11-8.3
		c0.1-0.9,0.2-1.8,0.2-2.6c0-22.6,0-45.1,0-67.7c0-14.9-7.7-26.5-20.8-31c-3.9-1.3-8.1-2.1-12.2-2.1c-18.2-0.2-36.5-0.2-54.7-0.1
		c-16,0.1-28.6,10.2-31.8,25.3c-0.5,2.2-0.7,4.4-0.7,6.7c-0.1,23.1,0,46.2,0,69.3c0,5,1.9,8.1,5.9,9.7c4.2,1.7,9.1,0.7,12.2-2.5
		c2-2.1,2.5-4.7,2.5-7.5c0-8.4,0-16.8,0-25.2c0-11.1,0-22.2,0-33.4c0-2.9,1.3-4.5,3.7-4.5c2.2,0,3.6,1.6,3.7,4.4c0,1.1,0,2.2,0,3.4
		c0,57.3,0,114.5,0,171.8c0,6.7,3.4,11.2,9.8,13.1c6.1,1.8,13.1-0.3,16-5.5c1.4-2.5,2.1-5.6,2.1-8.4c0.1-32.7,0.1-65.4,0.1-98.1
		c0-3.3,1.4-4.8,4.3-4.6c2.7,0.2,3.9,1.4,3.9,4.1c0,18.7,0,37.4,0,56.1c0,14.5-0.1,28.9,0.1,43.4c0.1,8.6,6.2,14.2,14.7,13.6
		c6.7-0.5,13.1-4.3,13.1-13.3c0-23.3,0-46.6,0-69.8c0-5.8,0-11.5,0-17.3C967.2,256.1,967.2,256.1,967.1,256.1z"/>
</g>
<g>
	<path class="st1" d="M935.4,71.7c-13.6-0.1-24.7,10.9-24.7,24.4c0,13.7,10.8,24.7,24.3,24.7c13.7,0.1,24.7-10.8,24.8-24.5
		C959.9,82.7,949,71.8,935.4,71.7z"/>
</g>
<g>
	<path class="st2" d="M967.1,256.1c0-13.4,0-26.7,0-40.1c0-16,0.1-31.9,0.2-47.9c0-3,1.3-4.6,3.6-4.8c2.2-0.1,3.9,1.4,4,3.8
		c0.1,8.5,0,16.9,0,25.4c0,7,0.1,14.1,0.1,21.1c0,4.6-0.1,9.3-0.1,13.9c0,5.3,3.9,9.2,9.3,9.6c6,0.4,10.3-2.8,11-8.3
		c0.1-0.9,0.2-1.8,0.2-2.6c0-22.6,0-45.1,0-67.7c0-14.9-7.7-26.5-20.8-31c-3.9-1.3-8.1-2.1-12.2-2.1c-18.2-0.2-36.5-0.2-54.7-0.1
		c-16,0.1-28.6,10.2-31.8,25.3c-0.5,2.2-0.7,4.4-0.7,6.7c-0.1,23.1,0,46.2,0,69.3c0,5,1.9,8.1,5.9,9.7c4.2,1.7,9.1,0.7,12.2-2.5
		c2-2.1,2.5-4.7,2.5-7.5c0-8.4,0-16.8,0-25.2c0-11.1,0-22.2,0-33.4c0-2.9,1.3-4.5,3.7-4.5c2.2,0,3.6,1.6,3.7,4.4c0,1.1,0,2.2,0,3.4
		c0,57.3,0,114.5,0,171.8c0,6.7,3.4,11.2,9.8,13.1c6.1,1.8,13.1-0.3,16-5.5c1.4-2.5,2.1-5.6,2.1-8.4c0.1-32.7,0.1-65.4,0.1-98.1
		c0-3.3,1.4-4.8,4.3-4.6c2.7,0.2,3.9,1.4,3.9,4.1c0,18.7,0,37.4,0,56.1c0,14.5-0.1,28.9,0.1,43.4c0.1,8.6,6.2,14.2,14.7,13.6
		c6.7-0.5,13.1-4.3,13.1-13.3c0-23.3,0-46.6,0-69.8c0-5.8,0-11.5,0-17.3C967.2,256.1,967.2,256.1,967.1,256.1z"/>
</g>
<g>
	<path class="st3" d="M935.4,71.7c-13.6-0.1-24.7,10.9-24.7,24.4c0,13.7,10.8,24.7,24.3,24.7c13.7,0.1,24.7-10.8,24.8-24.5
		C959.9,82.7,949,71.8,935.4,71.7z"/>
</g>
<g>
	<path class="st2" d="M935.4,71.7c-13.6-0.1-24.7,10.9-24.7,24.4c0,13.7,10.8,24.7,24.3,24.7c13.7,0.1,24.7-10.8,24.8-24.5
		C959.9,82.7,949,71.8,935.4,71.7z"/>
</g>
<g>
	<path class="st1" d="M935.4,71.7c-13.6-0.1-24.7,10.9-24.7,24.4c0,13.7,10.8,24.7,24.3,24.7c13.7,0.1,24.7-10.8,24.8-24.5
		C959.9,82.7,949,71.8,935.4,71.7z"/>
</g>
<g>
	<path class="st1" d="M935.4,71.7c-13.6-0.1-24.7,10.9-24.7,24.4c0,13.7,10.8,24.7,24.3,24.7c13.7,0.1,24.7-10.8,24.8-24.5
		C959.9,82.7,949,71.8,935.4,71.7z"/>
</g>
<g>
	<path class="st2" d="M935.4,71.7c-13.6-0.1-24.7,10.9-24.7,24.4c0,13.7,10.8,24.7,24.3,24.7c13.7,0.1,24.7-10.8,24.8-24.5
		C959.9,82.7,949,71.8,935.4,71.7z"/>
</g>
<g>
	<path class="st9" d="M935.4,71.7c-9.2,0-16.7,2.2-16.7,4.8c0,2.7,7.3,4.9,16.4,4.9c9.3,0,16.7-2.1,16.7-4.9
		C951.9,73.9,944.6,71.7,935.4,71.7z"/>
</g>
<g>
	<path class="st12" d="M1240,89.2c-0.1,15.6,12.4,28.2,28.1,28.3c15.7,0.1,28.4-12.5,28.4-28v-0.7c0.1-15.6-12.4-28.2-28.1-28.3
		S1240,73,1240,88.5V89.2z"/>
</g>
<g>
	<path class="st1" d="M1300.1,256.1c0-13.4,0-26.7,0-40.1c0-16,0.1-31.9,0.2-47.9c0-3,1.3-4.6,3.6-4.8c2.2-0.1,3.9,1.4,4,3.8
		c0.1,8.5,0,16.9,0,25.4c0,7,0.1,14.1,0.1,21.1c0,4.6-0.1,9.3-0.1,13.9c0,5.3,3.9,9.2,9.3,9.6c6,0.4,10.3-2.8,11-8.3
		c0.1-0.9,0.2-1.8,0.2-2.6c0-22.6,0-45.1,0-67.7c0-14.9-7.7-26.5-20.8-31c-3.9-1.3-8.1-2.1-12.2-2.1c-18.2-0.2-36.5-0.2-54.7-0.1
		c-16,0.1-28.6,10.2-31.8,25.3c-0.5,2.2-0.7,4.4-0.7,6.7c-0.1,23.1,0,46.2,0,69.3c0,5,1.9,8.1,5.9,9.7c4.2,1.7,9.1,0.7,12.2-2.5
		c2-2.1,2.5-4.7,2.5-7.5c0-8.4,0-16.8,0-25.2c0-11.1,0-22.2,0-33.4c0-2.9,1.3-4.5,3.7-4.5c2.2,0,3.6,1.6,3.7,4.4c0,1.1,0,2.2,0,3.4
		c0,57.3,0,114.5,0,171.8c0,6.7,3.4,11.2,9.8,13.1c6.1,1.8,13.1-0.3,16-5.5c1.4-2.5,2.1-5.6,2.1-8.4c0.1-32.7,0.1-65.4,0.1-98.1
		c0-3.3,1.4-4.8,4.3-4.6c2.7,0.2,3.9,1.4,3.9,4.1c0,18.7,0,37.4,0,56.1c0,14.5-0.1,28.9,0.1,43.4c0.1,8.6,6.2,14.2,14.7,13.6
		c6.7-0.5,13.1-4.3,13.1-13.3c0-23.3,0-46.6,0-69.8c0-5.8,0-11.5,0-17.3C1300.2,256.1,1300.2,256.1,1300.1,256.1z"/>
</g>
<g>
	<path class="st1" d="M1268.4,71.7c-13.6-0.1-24.7,10.9-24.7,24.4c0,13.7,10.8,24.7,24.3,24.7c13.7,0.1,24.7-10.8,24.8-24.5
		C1292.9,82.7,1282,71.8,1268.4,71.7z"/>
</g>
<g>
	<path class="st1" d="M1300.1,256.1c0-13.4,0-26.7,0-40.1c0-16,0.1-31.9,0.2-47.9c0-3,1.3-4.6,3.6-4.8c2.2-0.1,3.9,1.4,4,3.8
		c0.1,8.5,0,16.9,0,25.4c0,7,0.1,14.1,0.1,21.1c0,4.6-0.1,9.3-0.1,13.9c0,5.3,3.9,9.2,9.3,9.6c6,0.4,10.3-2.8,11-8.3
		c0.1-0.9,0.2-1.8,0.2-2.6c0-22.6,0-45.1,0-67.7c0-14.9-7.7-26.5-20.8-31c-3.9-1.3-8.1-2.1-12.2-2.1c-18.2-0.2-36.5-0.2-54.7-0.1
		c-16,0.1-28.6,10.2-31.8,25.3c-0.5,2.2-0.7,4.4-0.7,6.7c-0.1,23.1,0,46.2,0,69.3c0,5,1.9,8.1,5.9,9.7c4.2,1.7,9.1,0.7,12.2-2.5
		c2-2.1,2.5-4.7,2.5-7.5c0-8.4,0-16.8,0-25.2c0-11.1,0-22.2,0-33.4c0-2.9,1.3-4.5,3.7-4.5c2.2,0,3.6,1.6,3.7,4.4c0,1.1,0,2.2,0,3.4
		c0,57.3,0,114.5,0,171.8c0,6.7,3.4,11.2,9.8,13.1c6.1,1.8,13.1-0.3,16-5.5c1.4-2.5,2.1-5.6,2.1-8.4c0.1-32.7,0.1-65.4,0.1-98.1
		c0-3.3,1.4-4.8,4.3-4.6c2.7,0.2,3.9,1.4,3.9,4.1c0,18.7,0,37.4,0,56.1c0,14.5-0.1,28.9,0.1,43.4c0.1,8.6,6.2,14.2,14.7,13.6
		c6.7-0.5,13.1-4.3,13.1-13.3c0-23.3,0-46.6,0-69.8c0-5.8,0-11.5,0-17.3C1300.2,256.1,1300.2,256.1,1300.1,256.1z"/>
</g>
<g>
	<path class="st1" d="M1268.4,71.7c-13.6-0.1-24.7,10.9-24.7,24.4c0,13.7,10.8,24.7,24.3,24.7c13.7,0.1,24.7-10.8,24.8-24.5
		C1292.9,82.7,1282,71.8,1268.4,71.7z"/>
</g>
<g>
	<path class="st2" d="M1300.1,256.1c0-13.4,0-26.7,0-40.1c0-16,0.1-31.9,0.2-47.9c0-3,1.3-4.6,3.6-4.8c2.2-0.1,3.9,1.4,4,3.8
		c0.1,8.5,0,16.9,0,25.4c0,7,0.1,14.1,0.1,21.1c0,4.6-0.1,9.3-0.1,13.9c0,5.3,3.9,9.2,9.3,9.6c6,0.4,10.3-2.8,11-8.3
		c0.1-0.9,0.2-1.8,0.2-2.6c0-22.6,0-45.1,0-67.7c0-14.9-7.7-26.5-20.8-31c-3.9-1.3-8.1-2.1-12.2-2.1c-18.2-0.2-36.5-0.2-54.7-0.1
		c-16,0.1-28.6,10.2-31.8,25.3c-0.5,2.2-0.7,4.4-0.7,6.7c-0.1,23.1,0,46.2,0,69.3c0,5,1.9,8.1,5.9,9.7c4.2,1.7,9.1,0.7,12.2-2.5
		c2-2.1,2.5-4.7,2.5-7.5c0-8.4,0-16.8,0-25.2c0-11.1,0-22.2,0-33.4c0-2.9,1.3-4.5,3.7-4.5c2.2,0,3.6,1.6,3.7,4.4c0,1.1,0,2.2,0,3.4
		c0,57.3,0,114.5,0,171.8c0,6.7,3.4,11.2,9.8,13.1c6.1,1.8,13.1-0.3,16-5.5c1.4-2.5,2.1-5.6,2.1-8.4c0.1-32.7,0.1-65.4,0.1-98.1
		c0-3.3,1.4-4.8,4.3-4.6c2.7,0.2,3.9,1.4,3.9,4.1c0,18.7,0,37.4,0,56.1c0,14.5-0.1,28.9,0.1,43.4c0.1,8.6,6.2,14.2,14.7,13.6
		c6.7-0.5,13.1-4.3,13.1-13.3c0-23.3,0-46.6,0-69.8c0-5.8,0-11.5,0-17.3C1300.2,256.1,1300.2,256.1,1300.1,256.1z"/>
</g>
<g>
	<path class="st3" d="M1268.4,71.7c-13.6-0.1-24.7,10.9-24.7,24.4c0,13.7,10.8,24.7,24.3,24.7c13.7,0.1,24.7-10.8,24.8-24.5
		C1292.9,82.7,1282,71.8,1268.4,71.7z"/>
</g>
<g>
	<path class="st2" d="M1268.4,71.7c-13.6-0.1-24.7,10.9-24.7,24.4c0,13.7,10.8,24.7,24.3,24.7c13.7,0.1,24.7-10.8,24.8-24.5
		C1292.9,82.7,1282,71.8,1268.4,71.7z"/>
</g>
<g>
	<path class="st1" d="M1268.4,71.7c-13.6-0.1-24.7,10.9-24.7,24.4c0,13.7,10.8,24.7,24.3,24.7c13.7,0.1,24.7-10.8,24.8-24.5
		C1292.9,82.7,1282,71.8,1268.4,71.7z"/>
</g>
<g>
	<path class="st1" d="M1268.4,71.7c-13.6-0.1-24.7,10.9-24.7,24.4c0,13.7,10.8,24.7,24.3,24.7c13.7,0.1,24.7-10.8,24.8-24.5
		C1292.9,82.7,1282,71.8,1268.4,71.7z"/>
</g>
<g>
	<path class="st2" d="M1268.4,71.7c-13.6-0.1-24.7,10.9-24.7,24.4c0,13.7,10.8,24.7,24.3,24.7c13.7,0.1,24.7-10.8,24.8-24.5
		C1292.9,82.7,1282,71.8,1268.4,71.7z"/>
</g>
<g>
	<path class="st12" d="M1268.4,71.7c-9.2,0-16.7,2.2-16.7,4.8c0,2.7,7.3,4.9,16.4,4.9c9.3,0,16.7-2.1,16.7-4.9
		C1284.9,73.9,1277.6,71.7,1268.4,71.7z"/>
</g>
<g>
	<path class="st2" d="M1129.6,107.4c0.1-13-10.4-23.4-23.5-23.5c-12.9,0-23.6,10.5-23.6,23.4s10.6,23.6,23.4,23.7
		C1119,131.1,1129.5,120.6,1129.6,107.4z"/>
</g>
<g>
	<path class="st10" d="M419.1,107.4c0-15.9,13.1-28.9,29-28.9c16.1,0,29,12.9,28.9,28.9v39.9h-57.9V107.4z"/>
</g>
<g>
	<path class="st2" d="M474.8,271.4c9.1,0,17.9,0,27.1,0c-1-3.7-2-7.1-2.9-10.4c-7.9-27.2-15.7-54.3-23.6-81.5
		c-0.8-2.7-1.2-5.4-1.7-8.2c-0.2-1.6,0.4-3.1,2.1-3.2c1.1,0,2.5,0.8,3.3,1.7c0.7,0.7,1,2,1.3,3c4.7,16.2,9.3,32.4,13.9,48.6
		c1.2,4.2,3,8,7.2,9.9c3.4,1.6,6.9,1.4,10-1c3.5-2.7,4.7-6.6,3.7-10.7c-1.5-6.4-3.5-12.8-5.4-19.1c-4.1-13.8-8.2-27.7-12.6-41.5
		c-1.9-6.1-4.9-11.6-9.4-16.2c-4.9-5-10.9-7.5-17.9-7.5c-14.8-0.1-29.6-0.2-44.4,0c-11.4,0.1-19.4,6.3-24,16.2
		c-3,6.5-5.2,13.4-7.3,20.2c-4.6,14.8-8.9,29.7-13.4,44.5c-1,3.4-1.4,6.8,0,10.1c2.9,7,12.1,8,16.9,1.8c1.3-1.7,2.4-3.8,3-6
		c4.8-16.5,9.5-33,14.2-49.5c0.3-1,0.7-2,1.2-2.8c0.8-1.3,1.9-2.5,3.7-1.8c1.8,0.7,2.2,2.3,2,3.9c-0.4,2.4-1,4.7-1.7,7
		c-8.7,30.4-17.5,60.8-26.3,91.2c-0.1,0.3-0.1,0.6-0.2,1.2c9,0,17.8,0,27,0c0,1.4,0,2.4,0,3.5c0,23,0,46.1,0,69.1
		c0,8.5,7.3,14.1,15.2,11.7c4.9-1.5,8-5.5,8.1-10.7c0.1-20.3,0-40.6,0-60.9c0-4.1,0-8.3,0-12.6c2.6,0,5.1,0,7.7,0c0,2.2,0,4.3,0,6.4
		c0,16.6,0,33.3,0,49.9c0,5.7,0,11.3,0,17c0,6,5.1,11.4,10.9,11.5c6.6,0.1,12.2-4.9,12.2-11.2c0.1-23.5,0-47,0-70.5
		C474.8,273.6,474.8,272.6,474.8,271.4z"/>
</g>
<g>
	<path class="st1" d="M471.5,107.4c0.1-13-10.4-23.4-23.5-23.5c-12.9,0-23.6,10.5-23.6,23.4s10.6,23.6,23.4,23.7
		C461,131.1,471.5,120.6,471.5,107.4z"/>
</g>
<g>
	<path class="st2" d="M471.5,107.4c0.1-13-10.4-23.4-23.5-23.5c-12.9,0-23.6,10.5-23.6,23.4s10.6,23.6,23.4,23.7
		C461,131.1,471.5,120.6,471.5,107.4z"/>
</g>
<g>
	<circle class="st6" cx="750.9" cy="130.6" r="17.1"/>
</g>
<g>
	<circle class="st6" cx="754.5" cy="114.5" r="17.1"/>
</g>
<g>
	<circle class="st6" cx="791.8" cy="130.6" r="17.1"/>
</g>
<g>
	<circle class="st6" cx="788.2" cy="114.5" r="17.1"/>
</g>
<g>
	<path class="st6" d="M742.4,107.4c0-15.9,13.1-28.9,29-28.9c16.1,0,29,12.9,28.9,28.9v39.9h-57.9V107.4z"/>
</g>
<g>
	<path class="st13" d="M798.1,271.4c9.1,0,17.9,0,27.1,0c-1-3.7-2-7.1-2.9-10.4c-7.9-27.2-15.7-54.3-23.6-81.5
		c-0.8-2.7-1.2-5.4-1.7-8.2c-0.2-1.6,0.4-3.1,2.1-3.2c1.1,0,2.5,0.8,3.3,1.7c0.7,0.7,1,2,1.3,3c4.7,16.2,9.3,32.4,13.9,48.6
		c1.2,4.2,3,8,7.2,9.9c3.4,1.6,6.9,1.4,10-1c3.5-2.7,4.7-6.6,3.7-10.7c-1.5-6.4-3.5-12.8-5.4-19.1c-4.1-13.8-8.2-27.7-12.6-41.5
		c-1.9-6.1-4.9-11.6-9.4-16.2c-4.9-5-10.9-7.5-17.9-7.5c-14.8-0.1-29.6-0.2-44.4,0c-11.4,0.1-19.4,6.3-24,16.2
		c-3,6.5-5.2,13.4-7.3,20.2c-4.6,14.8-8.9,29.7-13.4,44.5c-1,3.4-1.4,6.8,0,10.1c2.9,7,12.1,8,16.9,1.8c1.3-1.7,2.4-3.8,3-6
		c4.8-16.5,9.5-33,14.2-49.5c0.3-1,0.7-2,1.2-2.8c0.8-1.3,1.9-2.5,3.7-1.8s2.2,2.3,2,3.9c-0.4,2.4-1,4.7-1.7,7
		c-8.7,30.4-17.5,60.8-26.3,91.2c-0.1,0.3-0.1,0.6-0.2,1.2c9,0,17.8,0,27,0c0,1.4,0,2.4,0,3.5c0,23,0,46.1,0,69.1
		c0,8.5,7.3,14.1,15.2,11.7c4.9-1.5,8-5.5,8.1-10.7c0.1-20.3,0-40.6,0-60.9c0-4.1,0-8.3,0-12.6c2.6,0,5.1,0,7.7,0c0,2.2,0,4.3,0,6.4
		c0,16.6,0,33.3,0,49.9c0,5.7,0,11.3,0,17c0,6,5.1,11.4,10.9,11.5c6.6,0.1,12.2-4.9,12.2-11.2c0.1-23.5,0-47,0-70.5
		C798.1,273.6,798.1,272.6,798.1,271.4z"/>
</g>
<g>
	<path class="st13" d="M794.9,107.4c0.1-13-10.4-23.4-23.5-23.5c-12.9,0-23.6,10.5-23.6,23.4s10.6,23.6,23.4,23.7
		C784.3,131.1,794.8,120.6,794.9,107.4z"/>
</g>
<g>
	<path class="st10" d="M2046.9,179.1c0.7-2.3,1.3-4.6,1.7-7c0.3-1.6-0.1-3.3-2-3.9c-1.8-0.7-2.9,0.5-3.7,1.8c-0.5,0.9-1,1.9-1.2,2.8
		c-4.6,16.2-9.2,32.4-13.9,48.6l-19.8-6.1c4.3-14.5,8.6-29,13.1-43.5c2.1-6.8,4.3-13.8,7.3-20.2c4.7-10,12.6-16.1,24-16.2
		c14.8-0.2,29.6-0.1,44.4,0c6.9,0,12.9,2.6,17.9,7.5c4.6,4.6,7.5,10.2,9.4,16.2c4.3,13.8,8.4,27.7,12.6,41.5c1.5,4.9,3,9.8,4.3,14.8
		l-19.7,6.1c-4.6-16.2-9.3-32.4-13.9-48.6c-0.3-1.1-0.6-2.3-1.3-3c-0.9-0.8-2.2-1.7-3.3-1.7c-1.7,0-2.4,1.6-2.1,3.2
		c0.4,2.7,0.9,5.5,1.7,8.2c7.8,27.2,15.7,54.3,23.6,81.5c1,3.3,1.9,6.7,2.9,10.4c-9.2,0-18,0-27.1,0h-54.1c-9.1,0-18,0-27,0
		c0.1-0.6,0.1-0.9,0.2-1.2C2029.4,239.9,2038.2,209.5,2046.9,179.1z"/>
</g>
<g>
	<path class="st3" d="M2035.2,219.6h78.6c4,13.8,8,27.6,12,41.4c1,3.3,1.9,6.7,2.9,10.4c-9.2,0-18,0-27.1,0h-54.1c-9.1,0-18,0-27,0
		c0.1-0.6,0.1-0.9,0.2-1.2C2025.5,253.4,2030.4,236.5,2035.2,219.6z"/>
</g>
<g>
	<path class="st3" d="M2270.5,217.6c0,12.8,0,25.7,0,38.5h0.1c0,5.8,0,11.5,0,17.3c0,23.3,0,46.6,0,69.8c0,9-6.4,12.8-13.1,13.3
		c-8.6,0.6-14.7-5-14.7-13.6c-0.1-14.5,0-28.9-0.1-43.4c0-18.7,0-37.4,0-56.1c0-2.7-1.2-3.9-3.9-4.1c-2.9-0.2-4.3,1.3-4.3,4.6
		c0,32.7,0.1,65.4-0.1,98.1c0,2.8-0.8,6-2.1,8.4c-2.9,5.2-9.9,7.3-16,5.5c-6.4-1.9-9.8-6.4-9.8-13.1c0-41.8,0-83.6,0-125.3h64
		L2270.5,217.6L2270.5,217.6z"/>
</g>
<g>
	<path class="st14" d="M2199.1,167.8c0,11.1,0,22.2,0,33.4c0,7.1,0,14.1,0,21.2h-20.6c0-21.7,0-43.3,0-65c0-2.2,0.2-4.5,0.7-6.7
		c3.2-15.2,15.8-25.2,31.8-25.3c18.2-0.1,36.5-0.2,54.7,0.1c4.1,0,8.3,0.8,12.2,2.1c13.1,4.5,20.8,16.1,20.8,31
		c0,21.3,0,42.5,0,63.8h-20.4c0-2.9,0.1-5.8,0.1-8.7c0-7-0.1-14.1-0.1-21.1c0-8.5,0-16.9,0-25.4c0-2.4-1.8-4-4-3.8
		c-2.3,0.1-3.6,1.8-3.6,4.8c-0.1,16-0.1,31.9-0.2,47.9c0,0.9,0,1.8,0,2.7h-64c0-15.9,0-31.8,0-47.7c0-1.1,0-2.2,0-3.4
		c-0.1-2.8-1.4-4.4-3.7-4.4C2200.4,163.3,2199.1,164.9,2199.1,167.8z"/>
</g>
<g>
	<path class="st14" d="M1612.5,217.6c0,12.8,0,25.7,0,38.5h0.1c0,5.8,0,11.5,0,17.3c0,23.3,0,46.6,0,69.8c0,9-6.4,12.8-13.1,13.3
		c-8.6,0.6-14.7-5-14.7-13.6c-0.1-14.5,0-28.9-0.1-43.4c0-18.7,0-37.4,0-56.1c0-2.7-1.2-3.9-3.9-4.1c-2.9-0.2-4.3,1.3-4.3,4.6
		c0,32.7,0.1,65.4-0.1,98.1c0,2.8-0.8,6-2.1,8.4c-2.9,5.2-9.9,7.3-16,5.5c-6.4-1.9-9.8-6.4-9.8-13.1c0-41.8,0-83.6,0-125.3h64V217.6
		z"/>
</g>
<g>
	<path class="st3" d="M1723.6,179.1c0.7-2.3,1.3-4.6,1.7-7c0.3-1.6-0.1-3.3-2-3.9c-1.8-0.7-2.9,0.5-3.7,1.8c-0.5,0.9-1,1.9-1.2,2.8
		c-4.6,16.2-9.2,32.4-13.9,48.6l-19.8-6.1c4.3-14.5,8.6-29,13.1-43.5c2.1-6.8,4.3-13.8,7.3-20.2c4.7-10,12.6-16.1,24-16.2
		c14.8-0.2,29.6-0.1,44.4,0c6.9,0,12.9,2.6,17.9,7.5c4.6,4.6,7.5,10.2,9.4,16.2c4.3,13.8,8.4,27.7,12.6,41.5c1.5,4.9,3,9.8,4.3,14.8
		l-19.7,6.1c-4.6-16.2-9.3-32.4-13.9-48.6c-0.3-1.1-0.6-2.3-1.3-3c-0.9-0.8-2.2-1.7-3.3-1.7c-1.7,0-2.4,1.6-2.1,3.2
		c0.4,2.7,0.9,5.5,1.7,8.2c7.8,27.2,15.7,54.3,23.6,81.5c1,3.3,1.9,6.7,2.9,10.4c-9.2,0-18,0-27.1,0h-54.1c-9.1,0-18,0-27,0
		c0.1-0.6,0.1-0.9,0.2-1.2C1706.1,239.9,1714.8,209.5,1723.6,179.1z"/>
</g>
<g>
	<path class="st4" d="M1711.9,219.6h78.6c4,13.8,8,27.6,12,41.4c1,3.3,1.9,6.7,2.9,10.4c-9.2,0-18,0-27.1,0h-54.1c-9.1,0-18,0-27,0
		c0.1-0.6,0.1-0.9,0.2-1.2C1702.2,253.4,1707,236.5,1711.9,219.6z"/>
</g>
<g>
	<path class="st4" d="M1541.1,167.8c0,11.1,0,22.2,0,33.4c0,7.1,0,14.1,0,21.2h-20.6c0-21.7,0-43.3,0-65c0-2.2,0.2-4.5,0.7-6.7
		c3.2-15.2,15.8-25.2,31.8-25.3c18.2-0.1,36.5-0.2,54.7,0.1c4.1,0,8.3,0.8,12.2,2.1c13.1,4.5,20.8,16.1,20.8,31
		c0,21.3,0,42.5,0,63.8h-20.4c0-2.9,0.1-5.8,0.1-8.7c0-7-0.1-14.1-0.1-21.1c0-8.5,0-16.9,0-25.4c0-2.4-1.8-4-4-3.8
		c-2.3,0.1-3.6,1.8-3.6,4.8c-0.1,16-0.1,31.9-0.2,47.9c0,0.9,0,1.8,0,2.7h-64c0-15.9,0-31.8,0-47.7c0-1.1,0-2.2,0-3.4
		c-0.1-2.8-1.4-4.4-3.7-4.4C1542.4,163.3,1541.1,164.9,1541.1,167.8z"/>
</g>
<g>
	<path class="st9" d="M1399.5,105.2c-0.1,15.6,12.4,28.2,28.1,28.3s28.4-12.5,28.4-28v-0.7c0.1-15.6-12.4-28.2-28.1-28.3
		c-15.7-0.1-28.4,12.5-28.4,28V105.2z"/>
</g>
<g>
	<path class="st1" d="M1459.5,272.1c0-13.4,0-26.7,0-40.1c0-16,0.1-31.9,0.2-47.9c0-3,1.3-4.6,3.6-4.8c2.2-0.1,3.9,1.4,4,3.8
		c0.1,8.5,0,16.9,0,25.4c0,7,0.1,4.1,0.1,11.1c0,4.6-0.1,13.3-0.1,17.9c0,5.3,3.9,9.2,9.3,9.6c6,0.4,10.3-2.8,11-8.3
		c0.1-0.9,0.2-1.8,0.2-2.6c0-22.6,0-39.1,0-61.7c0-14.9-7.7-26.5-20.8-31c-3.9-1.3-8.1-2.1-12.2-2.1c-18.2-0.2-36.5-0.2-54.7-0.1
		c-16,0.1-28.6,10.2-31.8,25.3c-0.5,2.2-0.7,4.4-0.7,6.7c-0.1,23.1,0,40.2,0,63.3c0,5,1.9,8.1,5.9,9.7c4.2,1.7,9.1,0.7,12.2-2.5
		c2-2.1,2.5-4.7,2.5-7.5c0-8.4,0-10.8,0-19.2c0-11.1,0-22.2,0-33.4c0-2.9,1.3-4.5,3.7-4.5c2.2,0,3.6,1.6,3.7,4.4c0,1.1,0,2.2,0,3.4
		c0,57.3,0,96.5,0,153.8c0,6.7,3.4,11.2,9.8,13.1c6.1,1.8,13.1-0.3,16-5.5c1.4-2.5,2.1-5.6,2.1-8.4c0.1-32.7,0.1-47.4,0.1-80.1
		c0-3.3,1.4-4.8,4.3-4.6c2.7,0.2,3.9,1.4,3.9,4.1c0,18.7,0,37.4,0,56.1c0,14.5-0.1,10.9,0.1,25.4c0.1,8.6,6.2,14.2,14.7,13.6
		c6.7-0.5,13.1-4.3,13.1-13.3c0-23.3,0-28.6,0-51.8c0-5.8,0-11.5,0-17.3C1459.6,272.1,1459.6,272.1,1459.5,272.1z"/>
</g>
<g>
	<path class="st1" d="M1427.8,87.7c-13.6-0.1-24.7,10.9-24.7,24.4c0,13.7,10.8,24.7,24.3,24.7c13.7,0.1,24.7-10.8,24.8-24.5
		C1452.3,98.7,1441.5,87.8,1427.8,87.7z"/>
</g>
<g>
	<path class="st1" d="M1459.5,272.1c0-13.4,0-26.7,0-40.1c0-16,0.1-31.9,0.2-47.9c0-3,1.3-4.6,3.6-4.8c2.2-0.1,3.9,1.4,4,3.8
		c0.1,8.5,0,16.9,0,25.4c0,7,0.1,4.1,0.1,11.1c0,4.6-0.1,13.3-0.1,17.9c0,5.3,3.9,9.2,9.3,9.6c6,0.4,10.3-2.8,11-8.3
		c0.1-0.9,0.2-1.8,0.2-2.6c0-22.6,0-39.1,0-61.7c0-14.9-7.7-26.5-20.8-31c-3.9-1.3-8.1-2.1-12.2-2.1c-18.2-0.2-36.5-0.2-54.7-0.1
		c-16,0.1-28.6,10.2-31.8,25.3c-0.5,2.2-0.7,4.4-0.7,6.7c-0.1,23.1,0,40.2,0,63.3c0,5,1.9,8.1,5.9,9.7c4.2,1.7,9.1,0.7,12.2-2.5
		c2-2.1,2.5-4.7,2.5-7.5c0-8.4,0-10.8,0-19.2c0-11.1,0-22.2,0-33.4c0-2.9,1.3-4.5,3.7-4.5c2.2,0,3.6,1.6,3.7,4.4c0,1.1,0,2.2,0,3.4
		c0,57.3,0,96.5,0,153.8c0,6.7,3.4,11.2,9.8,13.1c6.1,1.8,13.1-0.3,16-5.5c1.4-2.5,2.1-5.6,2.1-8.4c0.1-32.7,0.1-47.4,0.1-80.1
		c0-3.3,1.4-4.8,4.3-4.6c2.7,0.2,3.9,1.4,3.9,4.1c0,18.7,0,37.4,0,56.1c0,14.5-0.1,10.9,0.1,25.4c0.1,8.6,6.2,14.2,14.7,13.6
		c6.7-0.5,13.1-4.3,13.1-13.3c0-23.3,0-28.6,0-51.8c0-5.8,0-11.5,0-17.3C1459.6,272.1,1459.6,272.1,1459.5,272.1z"/>
</g>
<g>
	<path class="st1" d="M1427.8,87.7c-13.6-0.1-24.7,10.9-24.7,24.4c0,13.7,10.8,24.7,24.3,24.7c13.7,0.1,24.7-10.8,24.8-24.5
		C1452.3,98.7,1441.5,87.8,1427.8,87.7z"/>
</g>
<g>
	<path class="st2" d="M1459.5,272.1c0-13.4,0-26.7,0-40.1c0-16,0.1-31.9,0.2-47.9c0-3,1.3-4.6,3.6-4.8c2.2-0.1,3.9,1.4,4,3.8
		c0.1,8.5,0,16.9,0,25.4c0,7,0.1,4.1,0.1,11.1c0,4.6-0.1,13.3-0.1,17.9c0,5.3,3.9,9.2,9.3,9.6c6,0.4,10.3-2.8,11-8.3
		c0.1-0.9,0.2-1.8,0.2-2.6c0-22.6,0-39.1,0-61.7c0-14.9-7.7-26.5-20.8-31c-3.9-1.3-8.1-2.1-12.2-2.1c-18.2-0.2-36.5-0.2-54.7-0.1
		c-16,0.1-28.6,10.2-31.8,25.3c-0.5,2.2-0.7,4.4-0.7,6.7c-0.1,23.1,0,40.2,0,63.3c0,5,1.9,8.1,5.9,9.7c4.2,1.7,9.1,0.7,12.2-2.5
		c2-2.1,2.5-4.7,2.5-7.5c0-8.4,0-10.8,0-19.2c0-11.1,0-22.2,0-33.4c0-2.9,1.3-4.5,3.7-4.5c2.2,0,3.6,1.6,3.7,4.4c0,1.1,0,2.2,0,3.4
		c0,57.3,0,96.5,0,153.8c0,6.7,3.4,11.2,9.8,13.1c6.1,1.8,13.1-0.3,16-5.5c1.4-2.5,2.1-5.6,2.1-8.4c0.1-32.7,0.1-47.4,0.1-80.1
		c0-3.3,1.4-4.8,4.3-4.6c2.7,0.2,3.9,1.4,3.9,4.1c0,18.7,0,37.4,0,56.1c0,14.5-0.1,10.9,0.1,25.4c0.1,8.6,6.2,14.2,14.7,13.6
		c6.7-0.5,13.1-4.3,13.1-13.3c0-23.3,0-28.6,0-51.8c0-5.8,0-11.5,0-17.3C1459.6,272.1,1459.6,272.1,1459.5,272.1z"/>
</g>
<g>
	<path class="st3" d="M1427.8,87.7c-13.6-0.1-24.7,10.9-24.7,24.4c0,13.7,10.8,24.7,24.3,24.7c13.7,0.1,24.7-10.8,24.8-24.5
		C1452.3,98.7,1441.5,87.8,1427.8,87.7z"/>
</g>
<g>
	<path class="st2" d="M1427.8,87.7c-13.6-0.1-24.7,10.9-24.7,24.4c0,13.7,10.8,24.7,24.3,24.7c13.7,0.1,24.7-10.8,24.8-24.5
		C1452.3,98.7,1441.5,87.8,1427.8,87.7z"/>
</g>
<g>
	<path class="st1" d="M1427.8,87.7c-13.6-0.1-24.7,10.9-24.7,24.4c0,13.7,10.8,24.7,24.3,24.7c13.7,0.1,24.7-10.8,24.8-24.5
		C1452.3,98.7,1441.5,87.8,1427.8,87.7z"/>
</g>
<g>
	<path class="st1" d="M1427.8,87.7c-13.6-0.1-24.7,10.9-24.7,24.4c0,13.7,10.8,24.7,24.3,24.7c13.7,0.1,24.7-10.8,24.8-24.5
		C1452.3,98.7,1441.5,87.8,1427.8,87.7z"/>
</g>
<g>
	<path class="st2" d="M1427.8,87.7c-13.6-0.1-24.7,10.9-24.7,24.4c0,13.7,10.8,24.7,24.3,24.7c13.7,0.1,24.7-10.8,24.8-24.5
		C1452.3,98.7,1441.5,87.8,1427.8,87.7z"/>
</g>
<g>
	<path class="st9" d="M1427.8,87.7c-9.2,0-16.7,2.2-16.7,4.8c0,2.7,7.3,4.9,16.4,4.9c9.3,0,16.7-2.1,16.7-4.9
		C1444.3,89.9,1437,87.7,1427.8,87.7z"/>
</g>
<g>
	<path class="st3" d="M1459.6,233.6c0,12.8,0,25.7,0,38.5c0,0,0.1,45.8,0.1,69.1c0,9-6.4,12.8-13.1,13.3c-8.6,0.6-14.7-5-14.7-13.6
		c-0.1-14.5-0.1-62.8-0.1-81.6c0-2.7-1.2-3.9-3.9-4.1c-2.9-0.2-4.3,1.3-4.3,4.6c0,32.7,0.1,47.4-0.1,80.1c0,2.8-0.8,6-2.1,8.4
		c-2.9,5.2-9.9,7.3-16,5.5c-6.4-1.9-9.8-6.4-9.8-13.1c0-41.8,0-65.6,0-107.3h64V233.6z"/>
</g>
<g>
	<path class="st15" d="M1367.6,173.4c0-2.2,0.2-4.5,0.7-6.7c3.2-15.2,15.8-25.2,31.8-25.3c18.2-0.1,36.5-0.2,54.7,0.1
		c4.1,0,8.3,0.8,12.2,2.1c13.1,4.5,20.8,16.1,20.8,31c0,7.2,0,14.5,0,21.7h-20.5c0-4.4,0-8.7,0-13.1c0-2.4-1.8-4-4-3.8
		c-2.3,0.1-3.6,1.8-3.6,4.8c-0.1,16-0.1,31.9-0.2,47.9c0,0.9,0,1.8,0,2.7h-64c0-15.9,0-31.8,0-47.7c0-1.1,0-2.2,0-3.4
		c-0.1-2.8-1.4-4.4-3.7-4.4c-2.4,0-3.7,1.6-3.7,4.5c0,4.1,0,8.3,0,12.4h-20.5C1367.6,188.7,1367.6,181,1367.6,173.4z"/>
</g>
<g>
	<path class="st9" d="M1881.7,105.2c-0.1,15.6,12.4,28.2,28.1,28.3s28.4-12.5,28.4-28v-0.7c0.1-15.6-12.4-28.2-28.1-28.3
		c-15.7-0.1-28.4,12.5-28.4,28V105.2z"/>
</g>
<g>
	<path class="st1" d="M1941.8,272.1c0-13.4,0-26.7,0-40.1c0-16,0.1-31.9,0.2-47.9c0-3,1.3-4.6,3.6-4.8c2.2-0.1,3.9,1.4,4,3.8
		c0.1,8.5,0,16.9,0,25.4c0,7,0.1,4.1,0.1,11.1c0,4.6-0.1,13.3-0.1,17.9c0,5.3,3.9,9.2,9.3,9.6c6,0.4,10.3-2.8,11-8.3
		c0.1-0.9,0.2-1.8,0.2-2.6c0-22.6,0-39.1,0-61.7c0-14.9-7.7-26.5-20.8-31c-3.9-1.3-8.1-2.1-12.2-2.1c-18.2-0.2-36.5-0.2-54.7-0.1
		c-16,0.1-28.6,10.2-31.8,25.3c-0.5,2.2-0.7,4.4-0.7,6.7c-0.1,23.1,0,40.2,0,63.3c0,5,1.9,8.1,5.9,9.7c4.2,1.7,9.1,0.7,12.2-2.5
		c2-2.1,2.5-4.7,2.5-7.5c0-8.4,0-10.8,0-19.2c0-11.1,0-22.2,0-33.4c0-2.9,1.3-4.5,3.7-4.5c2.2,0,3.6,1.6,3.7,4.4c0,1.1,0,2.2,0,3.4
		c0,57.3,0,96.5,0,153.8c0,6.7,3.4,11.2,9.8,13.1c6.1,1.8,13.1-0.3,16-5.5c1.4-2.5,2.1-5.6,2.1-8.4c0.1-32.7,0.1-47.4,0.1-80.1
		c0-3.3,1.4-4.8,4.3-4.6c2.7,0.2,3.9,1.4,3.9,4.1c0,18.7,0,37.4,0,56.1c0,14.5-0.1,10.9,0.1,25.4c0.1,8.6,6.2,14.2,14.7,13.6
		c6.7-0.5,13.1-4.3,13.1-13.3c0-23.3,0-28.6,0-51.8c0-5.8,0-11.5,0-17.3C1941.9,272.1,1941.8,272.1,1941.8,272.1z"/>
</g>
<g>
	<path class="st1" d="M1910.1,87.7c-13.6-0.1-24.7,10.9-24.7,24.4c0,13.7,10.8,24.7,24.3,24.7c13.7,0.1,24.7-10.8,24.8-24.5
		C1934.6,98.7,1923.7,87.8,1910.1,87.7z"/>
</g>
<g>
	<path class="st1" d="M1941.8,272.1c0-13.4,0-26.7,0-40.1c0-16,0.1-31.9,0.2-47.9c0-3,1.3-4.6,3.6-4.8c2.2-0.1,3.9,1.4,4,3.8
		c0.1,8.5,0,16.9,0,25.4c0,7,0.1,4.1,0.1,11.1c0,4.6-0.1,13.3-0.1,17.9c0,5.3,3.9,9.2,9.3,9.6c6,0.4,10.3-2.8,11-8.3
		c0.1-0.9,0.2-1.8,0.2-2.6c0-22.6,0-39.1,0-61.7c0-14.9-7.7-26.5-20.8-31c-3.9-1.3-8.1-2.1-12.2-2.1c-18.2-0.2-36.5-0.2-54.7-0.1
		c-16,0.1-28.6,10.2-31.8,25.3c-0.5,2.2-0.7,4.4-0.7,6.7c-0.1,23.1,0,40.2,0,63.3c0,5,1.9,8.1,5.9,9.7c4.2,1.7,9.1,0.7,12.2-2.5
		c2-2.1,2.5-4.7,2.5-7.5c0-8.4,0-10.8,0-19.2c0-11.1,0-22.2,0-33.4c0-2.9,1.3-4.5,3.7-4.5c2.2,0,3.6,1.6,3.7,4.4c0,1.1,0,2.2,0,3.4
		c0,57.3,0,96.5,0,153.8c0,6.7,3.4,11.2,9.8,13.1c6.1,1.8,13.1-0.3,16-5.5c1.4-2.5,2.1-5.6,2.1-8.4c0.1-32.7,0.1-47.4,0.1-80.1
		c0-3.3,1.4-4.8,4.3-4.6c2.7,0.2,3.9,1.4,3.9,4.1c0,18.7,0,37.4,0,56.1c0,14.5-0.1,10.9,0.1,25.4c0.1,8.6,6.2,14.2,14.7,13.6
		c6.7-0.5,13.1-4.3,13.1-13.3c0-23.3,0-28.6,0-51.8c0-5.8,0-11.5,0-17.3C1941.9,272.1,1941.8,272.1,1941.8,272.1z"/>
</g>
<g>
	<path class="st1" d="M1910.1,87.7c-13.6-0.1-24.7,10.9-24.7,24.4c0,13.7,10.8,24.7,24.3,24.7c13.7,0.1,24.7-10.8,24.8-24.5
		C1934.6,98.7,1923.7,87.8,1910.1,87.7z"/>
</g>
<g>
	<path class="st2" d="M1941.8,272.1c0-13.4,0-26.7,0-40.1c0-16,0.1-31.9,0.2-47.9c0-3,1.3-4.6,3.6-4.8c2.2-0.1,3.9,1.4,4,3.8
		c0.1,8.5,0,16.9,0,25.4c0,7,0.1,4.1,0.1,11.1c0,4.6-0.1,13.3-0.1,17.9c0,5.3,3.9,9.2,9.3,9.6c6,0.4,10.3-2.8,11-8.3
		c0.1-0.9,0.2-1.8,0.2-2.6c0-22.6,0-39.1,0-61.7c0-14.9-7.7-26.5-20.8-31c-3.9-1.3-8.1-2.1-12.2-2.1c-18.2-0.2-36.5-0.2-54.7-0.1
		c-16,0.1-28.6,10.2-31.8,25.3c-0.5,2.2-0.7,4.4-0.7,6.7c-0.1,23.1,0,40.2,0,63.3c0,5,1.9,8.1,5.9,9.7c4.2,1.7,9.1,0.7,12.2-2.5
		c2-2.1,2.5-4.7,2.5-7.5c0-8.4,0-10.8,0-19.2c0-11.1,0-22.2,0-33.4c0-2.9,1.3-4.5,3.7-4.5c2.2,0,3.6,1.6,3.7,4.4c0,1.1,0,2.2,0,3.4
		c0,57.3,0,96.5,0,153.8c0,6.7,3.4,11.2,9.8,13.1c6.1,1.8,13.1-0.3,16-5.5c1.4-2.5,2.1-5.6,2.1-8.4c0.1-32.7,0.1-47.4,0.1-80.1
		c0-3.3,1.4-4.8,4.3-4.6c2.7,0.2,3.9,1.4,3.9,4.1c0,18.7,0,37.4,0,56.1c0,14.5-0.1,10.9,0.1,25.4c0.1,8.6,6.2,14.2,14.7,13.6
		c6.7-0.5,13.1-4.3,13.1-13.3c0-23.3,0-28.6,0-51.8c0-5.8,0-11.5,0-17.3C1941.9,272.1,1941.8,272.1,1941.8,272.1z"/>
</g>
<g>
	<path class="st3" d="M1910.1,87.7c-13.6-0.1-24.7,10.9-24.7,24.4c0,13.7,10.8,24.7,24.3,24.7c13.7,0.1,24.7-10.8,24.8-24.5
		C1934.6,98.7,1923.7,87.8,1910.1,87.7z"/>
</g>
<g>
	<path class="st2" d="M1910.1,87.7c-13.6-0.1-24.7,10.9-24.7,24.4c0,13.7,10.8,24.7,24.3,24.7c13.7,0.1,24.7-10.8,24.8-24.5
		C1934.6,98.7,1923.7,87.8,1910.1,87.7z"/>
</g>
<g>
	<path class="st1" d="M1910.1,87.7c-13.6-0.1-24.7,10.9-24.7,24.4c0,13.7,10.8,24.7,24.3,24.7c13.7,0.1,24.7-10.8,24.8-24.5
		C1934.6,98.7,1923.7,87.8,1910.1,87.7z"/>
</g>
<g>
	<path class="st1" d="M1910.1,87.7c-13.6-0.1-24.7,10.9-24.7,24.4c0,13.7,10.8,24.7,24.3,24.7c13.7,0.1,24.7-10.8,24.8-24.5
		C1934.6,98.7,1923.7,87.8,1910.1,87.7z"/>
</g>
<g>
	<path class="st2" d="M1910.1,87.7c-13.6-0.1-24.7,10.9-24.7,24.4c0,13.7,10.8,24.7,24.3,24.7c13.7,0.1,24.7-10.8,24.8-24.5
		C1934.6,98.7,1923.7,87.8,1910.1,87.7z"/>
</g>
<g>
	<path class="st9" d="M1910.1,87.7c-9.2,0-16.7,2.2-16.7,4.8c0,2.7,7.3,4.9,16.4,4.9c9.3,0,16.7-2.1,16.7-4.9
		C1926.6,89.9,1919.3,87.7,1910.1,87.7z"/>
</g>
<g>
	<path class="st4" d="M1941.8,233.6c0,12.8,0,25.7,0,38.5c0,0,0.1,45.8,0.1,69.1c0,9-6.4,12.8-13.1,13.3c-8.6,0.6-14.7-5-14.7-13.6
		c-0.1-14.5-0.1-62.8-0.1-81.6c0-2.7-1.2-3.9-3.9-4.1c-2.9-0.2-4.3,1.3-4.3,4.6c0,32.7,0.1,47.4-0.1,80.1c0,2.8-0.8,6-2.1,8.4
		c-2.9,5.2-9.9,7.3-16,5.5c-6.4-1.9-9.8-6.4-9.8-13.1c0-41.8,0-65.6,0-107.3h64V233.6z"/>
</g>
<g>
	<path class="st3" d="M1849.8,173.4c0-2.2,0.2-4.5,0.7-6.7c3.2-15.2,15.8-25.2,31.8-25.3c18.2-0.1,36.5-0.2,54.7,0.1
		c4.1,0,8.3,0.8,12.2,2.1c13.1,4.5,20.8,16.1,20.8,31c0,7.2,0,14.5,0,21.7h-20.5c0-4.4,0-8.7,0-13.1c0-2.4-1.8-4-4-3.8
		c-2.3,0.1-3.6,1.8-3.6,4.8c-0.1,16-0.1,31.9-0.2,47.9c0,0.9,0,1.8,0,2.7h-64c0-15.9,0-31.8,0-47.7c0-1.1,0-2.2,0-3.4
		c-0.1-2.8-1.4-4.4-3.7-4.4c-2.4,0-3.7,1.6-3.7,4.5c0,4.1,0,8.3,0,12.4h-20.5C1849.8,188.7,1849.8,181,1849.8,173.4z"/>
</g>
<g>
	<path class="st14" d="M743.5,179.1c0.7-2.3,1.3-4.6,1.7-7c0.3-1.6-0.1-3.3-2-3.9c-1.8-0.7-2.9,0.5-3.7,1.8c-0.5,0.9-1,1.9-1.2,2.8
		c-4.6,16.2-9.2,32.4-13.9,48.6l-19.8-6.1c4.3-14.5,8.6-29,13.1-43.5c2.1-6.8,4.3-13.8,7.3-20.2c4.7-10,12.6-16.1,24-16.2
		c14.8-0.2,29.6-0.1,44.4,0c6.9,0,12.9,2.6,17.9,7.5c4.6,4.6,7.5,10.2,9.4,16.2c4.3,13.8,8.4,27.7,12.6,41.5c1.5,4.9,3,9.8,4.3,14.8
		l-19.7,6.1c-4.6-16.2-9.3-32.4-13.9-48.6c-0.3-1.1-0.6-2.3-1.3-3c-0.9-0.8-2.2-1.7-3.3-1.7c-1.7,0-2.4,1.6-2.1,3.2
		c0.4,2.7,0.9,5.5,1.7,8.2c7.8,27.2,15.7,54.3,23.6,81.5c1,3.3,1.9,6.7,2.9,10.4c-9.2,0-18,0-27.1,0h-54.1c-9.1,0-18,0-27,0
		c0.1-0.6,0.1-0.9,0.2-1.2C726,239.9,734.7,209.5,743.5,179.1z"/>
</g>
<g>
	<path class="st15" d="M731.8,219.6h78.6c4,13.8,8,27.6,12,41.4c1,3.3,1.9,6.7,2.9,10.4c-9.2,0-18,0-27.1,0h-54.1c-9.1,0-18,0-27,0
		c0.1-0.6,0.1-0.9,0.2-1.2C722.1,253.4,726.9,236.5,731.8,219.6z"/>
</g>
<g>
	<path class="st10" d="M967.1,217.6c0,12.8,0,25.7,0,38.5h0.1c0,5.8,0,11.5,0,17.3c0,23.3,0,46.6,0,69.8c0,9-6.4,12.8-13.1,13.3
		c-8.6,0.6-14.7-5-14.7-13.6c-0.1-14.5,0-28.9-0.1-43.4c0-18.7,0-37.4,0-56.1c0-2.7-1.2-3.9-3.9-4.1c-2.9-0.2-4.3,1.3-4.3,4.6
		c0,32.7,0.1,65.4-0.1,98.1c0,2.8-0.8,6-2.1,8.4c-2.9,5.2-9.9,7.3-16,5.5c-6.4-1.9-9.8-6.4-9.8-13.1c0-41.8,0-83.6,0-125.3h64
		L967.1,217.6L967.1,217.6z"/>
</g>
<g>
	<path class="st4" d="M1078.2,179.1c0.7-2.3,1.3-4.6,1.7-7c0.3-1.6-0.1-3.3-2-3.9c-1.8-0.7-2.9,0.5-3.7,1.8c-0.5,0.9-1,1.9-1.2,2.8
		c-4.6,16.2-9.2,32.4-13.9,48.6l-19.8-6.1c4.3-14.5,8.6-29,13.1-43.5c2.1-6.8,4.3-13.8,7.3-20.2c4.7-10,12.6-16.1,24-16.2
		c14.8-0.2,29.6-0.1,44.4,0c6.9,0,12.9,2.6,17.9,7.5c4.6,4.6,7.5,10.2,9.4,16.2c4.3,13.8,8.4,27.7,12.6,41.5c1.5,4.9,3,9.8,4.3,14.8
		l-19.7,6.1c-4.6-16.2-9.3-32.4-13.9-48.6c-0.3-1.1-0.6-2.3-1.3-3c-0.9-0.8-2.2-1.7-3.3-1.7c-1.7,0-2.4,1.6-2.1,3.2
		c0.4,2.7,0.9,5.5,1.7,8.2c7.8,27.2,15.7,54.3,23.6,81.5c1,3.3,1.9,6.7,2.9,10.4c-9.2,0-18,0-27.1,0H1079c-9.1,0-18,0-27,0
		c0.1-0.6,0.1-0.9,0.2-1.2C1060.7,239.9,1069.4,209.5,1078.2,179.1z"/>
</g>
<g>
	<path class="st3" d="M1066.5,219.6h78.6c4,13.8,8,27.6,12,41.4c1,3.3,1.9,6.7,2.9,10.4c-9.2,0-18,0-27.1,0h-54.1c-9.1,0-18,0-27,0
		c0.1-0.6,0.1-0.9,0.2-1.2C1056.8,253.4,1061.6,236.5,1066.5,219.6z"/>
</g>
<g>
	<path class="st3" d="M895.7,167.8c0,11.1,0,22.2,0,33.4c0,7.1,0,14.1,0,21.2h-20.6c0-21.7,0-43.3,0-65c0-2.2,0.2-4.5,0.7-6.7
		c3.2-15.2,15.8-25.2,31.8-25.3c18.2-0.1,36.5-0.2,54.7,0.1c4.1,0,8.3,0.8,12.2,2.1c13.1,4.5,20.8,16.1,20.8,31
		c0,21.3,0,42.5,0,63.8h-20.4c0-2.9,0.1-5.8,0.1-8.7c0-7-0.1-14.1-0.1-21.1c0-8.5,0-16.9,0-25.4c0-2.4-1.8-4-4-3.8
		c-2.3,0.1-3.6,1.8-3.6,4.8c-0.1,16-0.1,31.9-0.2,47.9c0,0.9,0,1.8,0,2.7h-64c0-15.9,0-31.8,0-47.7c0-1.1,0-2.2,0-3.4
		c-0.1-2.8-1.4-4.4-3.7-4.4C897,163.3,895.7,164.9,895.7,167.8z"/>
</g>
<g>
	<path class="st3" d="M420.2,179.1c0.7-2.3,1.3-4.6,1.7-7c0.3-1.6-0.1-3.3-2-3.9c-1.8-0.7-2.9,0.5-3.7,1.8c-0.5,0.9-1,1.9-1.2,2.8
		c-4.6,16.2-9.2,32.4-13.9,48.6l-19.8-6.1c4.3-14.5,8.6-29,13.1-43.5c2.1-6.8,4.3-13.8,7.3-20.2c4.7-10,12.6-16.1,24-16.2
		c14.8-0.2,29.6-0.1,44.4,0c6.9,0,12.9,2.6,17.9,7.5c4.6,4.6,7.5,10.2,9.4,16.2c4.3,13.8,8.4,27.7,12.6,41.5c1.5,4.9,3,9.8,4.3,14.8
		l-19.7,6.1c-4.6-16.2-9.3-32.4-13.9-48.6c-0.3-1.1-0.6-2.3-1.3-3c-0.9-0.8-2.2-1.7-3.3-1.7c-1.7,0-2.4,1.6-2.1,3.2
		c0.4,2.7,0.9,5.5,1.7,8.2c7.8,27.2,15.7,54.3,23.6,81.5c1,3.3,1.9,6.7,2.9,10.4c-9.2,0-18,0-27.1,0H421c-9.1,0-18,0-27,0
		c0.1-0.6,0.1-0.9,0.2-1.2C402.6,239.9,411.4,209.5,420.2,179.1z"/>
</g>
<g>
	<path class="st4" d="M408.5,219.6H487c4,13.8,8,27.6,12,41.4c1,3.3,1.9,6.7,2.9,10.4c-9.2,0-18,0-27.1,0h-54.1c-9.1,0-18,0-27,0
		c0.1-0.6,0.1-0.9,0.2-1.2C398.8,253.4,403.6,236.5,408.5,219.6z"/>
</g>
<g>
	<path class="st4" d="M1300.1,217.6c0,12.8,0,25.7,0,38.5c0,0,0.1,63.8,0.1,87.1c0,9-6.4,12.8-13.1,13.3c-8.6,0.6-14.7-5-14.7-13.6
		c-0.1-14.5-0.1-80.8-0.1-99.6c0-2.7-1.2-3.9-3.9-4.1c-2.9-0.2-4.3,1.3-4.3,4.6c0,32.7,0.1,65.4-0.1,98.1c0,2.8-0.8,6-2.1,8.4
		c-2.9,5.2-9.9,7.3-16,5.5c-6.4-1.9-9.8-6.4-9.8-13.1c0-41.8,0-83.6,0-125.3h64V217.6z"/>
</g>
<g>
	<path class="st10" d="M1208.1,157.4c0-2.2,0.2-4.5,0.7-6.7c3.2-15.2,15.8-25.2,31.8-25.3c18.2-0.1,36.5-0.2,54.7,0.1
		c4.1,0,8.3,0.8,12.2,2.1c13.1,4.5,20.8,16.1,20.8,31c0,7.2,0,14.5,0,21.7h-20.5c0-4.4,0-8.7,0-13.1c0-2.4-1.8-4-4-3.8
		c-2.3,0.1-3.6,1.8-3.6,4.8c-0.1,16-0.1,31.9-0.2,47.9c0,0.9,0,1.8,0,2.7h-64c0-15.9,0-31.8,0-47.7c0-1.1,0-2.2,0-3.4
		c-0.1-2.8-1.4-4.4-3.7-4.4c-2.4,0-3.7,1.6-3.7,4.5c0,4.1,0,8.3,0,12.4h-20.5C1208.1,172.7,1208.1,165,1208.1,157.4z"/>
</g>
<g>
	<path class="st16" d="M568.7,167.8c0,11.1,4,54.5,4,54.5h-28.6c0,0,4-43.3,4-65c0-2.2,0.2-4.5,0.7-6.7
		c3.2-15.2,15.8-25.2,31.8-25.3c18.2-0.1,36.5-0.2,54.7,0.1c4.1,0,8.3,0.8,12.2,2.1c13.1,4.5,20.8,16.1,20.8,31
		c0,21.3,4,63.8,4,63.8h-28.4c0,0,4-46.7,3.9-55.2c0-2.4-1.8-4-4-3.8c-2.3,0.1-3.6,1.8-3.6,4.8c-0.1,16-0.1,31.9-0.2,47.9
		c0,0.9,0,1.8,0,2.7h-64c0-15.9,0-31.8,0-47.7c0-1.1,0-2.2,0-3.4c-0.1-2.8-1.4-4.4-3.7-4.4C570,163.3,568.7,164.9,568.7,167.8z"/>
</g>
<polygon class="st17" points="576.1,218.7 562.5,324.4 653.8,324.4 640.2,218.7 "/>
<polygon class="st17" points="640.2,218.7 595.6,125.3 576.2,125.5 576.2,218.7 "/>
</svg>
