<?xml version="1.0" encoding="utf-8"?>
<!-- Generator: Adobe Illustrator 21.1.0, SVG Export Plug-In . SVG Version: 6.00 Build 0)  -->
<svg version="1.1" id="Ebene_1" xmlns="http://www.w3.org/2000/svg" xmlns:xlink="http://www.w3.org/1999/xlink" x="0px" y="0px"
	 viewBox="0 0 1500 1500" style="enable-background:new 0 0 1500 1500;" xml:space="preserve">
<style type="text/css">
	.st0{fill:#13E855;}
	.st1{fill:#74F7F0;}
	.st2{fill:#F4CF92;}
	.st3{fill:#7694F4;}
	.st4{fill:#3C3C3B;}
	.st5{fill:#EAEFF4;}
	.st6{fill:none;stroke:#3C3C3B;stroke-width:5;stroke-miterlimit:10;}
	.st7{fill:#A0773C;}
	.st8{fill:#E677F2;}
	.st9{fill:none;}
	.st10{fill:#FFFFFF;}
	.st11{font-family:'Faustina-SemiBold';}
	.st12{font-size:40px;}
</style>
<g>
	<g>
		<path class="st0" d="M520.6,473.5c0.2,39.1-31.1,70.5-70.3,70.7c-39.1,0.1-71-31.3-71-70.1v-1.8c-0.2-39.1,31.1-70.5,70.3-70.7
			c39.1-0.1,71,31.3,71,70.1V473.5z"/>
	</g>
	<g>
		<path class="st1" d="M370.4,890.9c0-33.4,0.1-66.8,0-100.2c-0.1-39.9-0.2-79.9-0.4-119.8c0-7.5-3.1-11.6-8.9-12
			c-5.5-0.3-9.9,3.6-9.9,9.6c-0.2,21.2,0,42.4-0.1,63.5c-0.1,17.6-0.3,10.2-0.3,27.7c0,11.6,0.3,33.2,0.3,44.8
			c0,13.3-9.6,23.1-23.3,24c-15,1-25.7-7.1-27.4-20.7c-0.3-2.2-0.4-4.4-0.4-6.6c0-56.4-0.1-97.8,0-154.2c0.1-37.3,19.2-66.3,52-77.5
			c9.7-3.3,20.3-5.2,30.5-5.4c45.6-0.6,91.2-0.4,136.8-0.2c40,0.2,71.4,25.5,79.5,63.3c1.2,5.4,1.7,11.1,1.7,16.7
			c0.1,57.8,0.1,100.6,0.1,158.4c0,12.4-4.7,20.2-14.8,24.2c-10.4,4.2-22.8,1.7-30.5-6.3c-5.1-5.3-6.2-11.8-6.1-18.8
			c0.1-21,0-27,0-48c0-27.8,0-55.6,0-83.4c0-7.3-3.3-11.4-9.3-11.3c-5.6,0.1-9,4.1-9.2,11c-0.1,2.8,0,5.6,0,8.4
			c0,143.2,0,241.4,0,384.5c0,16.8-8.5,27.9-24.5,32.7c-15.3,4.6-32.8-0.8-40.1-13.8c-3.4-6.1-5.3-14-5.3-21
			c-0.4-81.8-0.2-118.6-0.2-200.4c0-8.4-3.4-12-10.7-11.6c-6.6,0.4-9.7,3.5-9.8,10.2c-0.1,46.8,0,93.6-0.1,140.4
			c0,36.2,0.2,27.4-0.1,63.5c-0.2,21.6-15.5,35.6-36.9,34c-16.7-1.2-32.7-10.8-32.7-33.3c-0.1-58.2,0-71.4,0-129.6
			c0-14.4,0-28.8,0-43.2C370.2,890.9,370.3,890.9,370.4,890.9z"/>
	</g>
	<g>
		<path class="st1" d="M449.7,429.9c34-0.1,61.7,27.2,61.7,60.9c0,34.2-27.1,61.7-60.9,61.8c-34.4,0.2-61.8-27-61.9-61.3
			C388.4,457.3,415.6,430,449.7,429.9z"/>
	</g>
	<g>
		<path class="st1" d="M370.4,890.9c0-33.4,0.1-66.8,0-100.2c-0.1-39.9-0.2-79.9-0.4-119.8c0-7.5-3.1-11.6-8.9-12
			c-5.5-0.3-9.9,3.6-9.9,9.6c-0.2,21.2,0,42.4-0.1,63.5c-0.1,17.6-0.3,10.2-0.3,27.7c0,11.6,0.3,33.2,0.3,44.8
			c0,13.3-9.6,23.1-23.3,24c-15,1-25.7-7.1-27.4-20.7c-0.3-2.2-0.4-4.4-0.4-6.6c0-56.4-0.1-97.8,0-154.2c0.1-37.3,19.2-66.3,52-77.5
			c9.7-3.3,20.3-5.2,30.5-5.4c45.6-0.6,91.2-0.4,136.8-0.2c40,0.2,71.4,25.5,79.5,63.3c1.2,5.4,1.7,11.1,1.7,16.7
			c0.1,57.8,0.1,100.6,0.1,158.4c0,12.4-4.7,20.2-14.8,24.2c-10.4,4.2-22.8,1.7-30.5-6.3c-5.1-5.3-6.2-11.8-6.1-18.8
			c0.1-21,0-27,0-48c0-27.8,0-55.6,0-83.4c0-7.3-3.3-11.4-9.3-11.3c-5.6,0.1-9,4.1-9.2,11c-0.1,2.8,0,5.6,0,8.4
			c0,143.2,0,241.4,0,384.5c0,16.8-8.5,27.9-24.5,32.7c-15.3,4.6-32.8-0.8-40.1-13.8c-3.4-6.1-5.3-14-5.3-21
			c-0.4-81.8-0.2-118.6-0.2-200.4c0-8.4-3.4-12-10.7-11.6c-6.6,0.4-9.7,3.5-9.8,10.2c-0.1,46.8,0,93.6-0.1,140.4
			c0,36.2,0.2,27.4-0.1,63.5c-0.2,21.6-15.5,35.6-36.9,34c-16.7-1.2-32.7-10.8-32.7-33.3c-0.1-58.2,0-71.4,0-129.6
			c0-14.4,0-28.8,0-43.2C370.2,890.9,370.3,890.9,370.4,890.9z"/>
	</g>
	<g>
		<path class="st1" d="M449.7,429.9c34-0.1,61.7,27.2,61.7,60.9c0,34.2-27.1,61.7-60.9,61.8c-34.4,0.2-61.8-27-61.9-61.3
			C388.4,457.3,415.6,430,449.7,429.9z"/>
	</g>
	<g>
		<path class="st2" d="M370.4,890.9c0-33.4,0.1-66.8,0-100.2c-0.1-39.9-0.2-79.9-0.4-119.8c0-7.5-3.1-11.6-8.9-12
			c-5.5-0.3-9.9,3.6-9.9,9.6c-0.2,21.2,0,42.4-0.1,63.5c-0.1,17.6-0.3,10.2-0.3,27.7c0,11.6,0.3,33.2,0.3,44.8
			c0,13.3-9.6,23.1-23.3,24c-15,1-25.7-7.1-27.4-20.7c-0.3-2.2-0.4-4.4-0.4-6.6c0-56.4-0.1-97.8,0-154.2c0.1-37.3,19.2-66.3,52-77.5
			c9.7-3.3,20.3-5.2,30.5-5.4c45.6-0.6,91.2-0.4,136.8-0.2c40,0.2,71.4,25.5,79.5,63.3c1.2,5.4,1.7,11.1,1.7,16.7
			c0.1,57.8,0.1,100.6,0.1,158.4c0,12.4-4.7,20.2-14.8,24.2c-10.4,4.2-22.8,1.7-30.5-6.3c-5.1-5.3-6.2-11.8-6.1-18.8
			c0.1-21,0-27,0-48c0-27.8,0-55.6,0-83.4c0-7.3-3.3-11.4-9.3-11.3c-5.6,0.1-9,4.1-9.2,11c-0.1,2.8,0,5.6,0,8.4
			c0,143.2,0,241.4,0,384.5c0,16.8-8.5,27.9-24.5,32.7c-15.3,4.6-32.8-0.8-40.1-13.8c-3.4-6.1-5.3-14-5.3-21
			c-0.4-81.8-0.2-118.6-0.2-200.4c0-8.4-3.4-12-10.7-11.6c-6.6,0.4-9.7,3.5-9.8,10.2c-0.1,46.8,0,93.6-0.1,140.4
			c0,36.2,0.2,27.4-0.1,63.5c-0.2,21.6-15.5,35.6-36.9,34c-16.7-1.2-32.7-10.8-32.7-33.3c-0.1-58.2,0-71.4,0-129.6
			c0-14.4,0-28.8,0-43.2C370.2,890.9,370.3,890.9,370.4,890.9z"/>
	</g>
	<g>
		<path class="st3" d="M449.7,429.9c34-0.1,61.7,27.2,61.7,60.9c0,34.2-27.1,61.7-60.9,61.8c-34.4,0.2-61.8-27-61.9-61.3
			C388.4,457.3,415.6,430,449.7,429.9z"/>
	</g>
	<g>
		<path class="st2" d="M449.7,429.9c34-0.1,61.7,27.2,61.7,60.9c0,34.2-27.1,61.7-60.9,61.8c-34.4,0.2-61.8-27-61.9-61.3
			C388.4,457.3,415.6,430,449.7,429.9z"/>
	</g>
	<g>
		<path class="st1" d="M449.7,429.9c34-0.1,61.7,27.2,61.7,60.9c0,34.2-27.1,61.7-60.9,61.8c-34.4,0.2-61.8-27-61.9-61.3
			C388.4,457.3,415.6,430,449.7,429.9z"/>
	</g>
	<g>
		<path class="st1" d="M449.7,429.9c34-0.1,61.7,27.2,61.7,60.9c0,34.2-27.1,61.7-60.9,61.8c-34.4,0.2-61.8-27-61.9-61.3
			C388.4,457.3,415.6,430,449.7,429.9z"/>
	</g>
	<g>
		<path class="st2" d="M449.7,429.9c34-0.1,61.7,27.2,61.7,60.9c0,34.2-27.1,61.7-60.9,61.8c-34.4,0.2-61.8-27-61.9-61.3
			C388.4,457.3,415.6,430,449.7,429.9z"/>
	</g>
	<g>
		<path class="st0" d="M449.8,429.9c23,0,41.7,5.4,41.6,12.1c0,6.8-18.3,12.2-41.1,12.2c-23.2,0-41.7-5.3-41.8-12.2
			C408.4,435.3,426.7,429.9,449.8,429.9z"/>
	</g>
	<g>
		<path class="st4" d="M370.4,794.5c0.1,32.1,0,64.2,0,96.3c-0.1,0-0.3,114.6-0.3,172.8c0,22.5,16.1,32.1,32.7,33.3
			c21.4,1.6,36.7-12.4,36.9-34c0.4-36.2,0.1-157.1,0.2-203.9c0-6.7,3.1-9.8,9.8-10.2c7.3-0.4,10.7,3.2,10.7,11.6
			c0,81.8-0.1,118.6,0.2,200.4c0,7.1,1.9,14.9,5.3,21c7.3,13,24.8,18.3,40.1,13.8c16-4.8,24.5-16,24.5-32.7c0-104.4,0-163.9,0-268.3
			H370.4V794.5z"/>
	</g>
	<g>
		<path class="st5" d="M600.3,644.1c0-5.6-0.6-11.2-1.7-16.7c-8.1-37.9-39.5-63.1-79.5-63.3c-45.6-0.3-91.2-0.4-136.8,0.2
			c-10.2,0.1-20.8,2.1-30.5,5.4c-32.9,11.2-52,40.2-52,77.5c0,18.1,0,36.1,0,54.2H351c0-10.9,0-21.9,0.1-32.8c0-6,4.4-9.9,9.9-9.6
			c5.8,0.3,8.9,4.4,8.9,12c0.2,39.9,0.3,79.9,0.4,119.8c0,2.3,0,4.5,0,6.8h160.1c0-39.7,0-79.4,0-119.2c0-2.8,0-5.6,0-8.4
			c0.2-6.9,3.6-10.9,9.2-11c6-0.1,9.3,3.9,9.3,11.3c0,10.4,0,20.7,0,31.1h51.3C600.4,682.2,600.4,663.1,600.3,644.1z"/>
	</g>
	<line class="st6" x1="299.8" y1="785.1" x2="350.9" y2="785.1"/>
	<line class="st6" x1="299.8" y1="776.3" x2="350.9" y2="776.3"/>
</g>
<g>
	<g>
		<circle class="st4" cx="1082.3" cy="530.1" r="42.7"/>
	</g>
	<g>
		<circle class="st4" cx="1073.2" cy="489.8" r="42.7"/>
	</g>
	<g>
		<circle class="st4" cx="979.9" cy="530.1" r="42.7"/>
	</g>
	<g>
		<circle class="st4" cx="989.1" cy="489.8" r="42.7"/>
	</g>
	<g>
		<path class="st4" d="M1103.5,471.9c0-39.7-32.7-72.2-72.6-72.1c-40.2,0.1-72.4,32.3-72.3,72.2v99.7h144.8L1103.5,471.9
			L1103.5,471.9z"/>
	</g>
	<g>
		<path class="st7" d="M964.2,882.1c-22.8,0-44.8,0-67.8,0c2.6-9.2,4.9-17.6,7.3-26c19.6-67.9,39.4-135.8,58.9-203.7
			c1.9-6.7,3.1-13.6,4.1-20.5c0.6-3.9-1.1-7.9-5.3-8c-2.8-0.1-6.1,2.1-8.3,4.2c-1.8,1.8-2.6,4.9-3.4,7.5
			c-11.7,40.5-23.3,81-34.8,121.5c-3,10.5-7.5,20-18,24.8c-8.6,4-17.3,3.5-24.9-2.4c-8.7-6.8-11.6-16.5-9.2-26.9
			c3.9-16.1,8.8-31.9,13.6-47.8c10.4-34.6,20.6-69.3,31.4-103.7c4.8-15.1,12.2-29.1,23.6-40.6c12.3-12.4,27.4-18.6,44.7-18.8
			c37-0.2,74-0.4,111,0c28.6,0.4,48.4,15.7,60.1,40.6c7.6,16.2,13,33.5,18.3,50.6c11.5,37,22.3,74.2,33.4,111.3
			c2.5,8.4,3.5,17,0,25.3c-7.3,17.4-30.3,20-42.2,4.6c-3.3-4.3-5.9-9.6-7.4-14.9c-12-41.2-23.7-82.5-35.5-123.8
			c-0.7-2.5-1.7-4.9-3.1-7.1c-2.1-3.3-4.8-6.2-9.3-4.6c-4.6,1.7-5.6,5.7-4.9,9.8c1,5.9,2.6,11.7,4.3,17.4
			c21.9,76,43.8,152,65.7,227.9c0.2,0.7,0.2,1.5,0.4,2.9c-22.5,0-44.5,0-67.4,0c0,3.4,0,6.1,0,8.8c0,57.6,0,115.2,0,172.8
			c0,21.4-18.2,35.3-37.9,29.3c-12.2-3.7-20.1-13.6-20.1-26.7c-0.2-50.8,0-101.5,0-152.3c0-10.4,0-20.7,0-31.5c-6.6,0-12.6,0-19.2,0
			c0,5.6,0,10.7,0,15.9c0,41.6,0,83.2,0,124.8c0,14.2,0,28.3,0,42.5c0,15.1-12.8,28.4-27.4,28.7c-16.6,0.3-30.5-12.2-30.5-28.1
			c-0.2-58.8-0.1-117.6-0.1-176.4C964.2,887.5,964.2,885.1,964.2,882.1z"/>
	</g>
	<g>
		<path class="st7" d="M972.3,472.1c-0.1-32.4,26-58.6,58.7-58.7c32.3-0.1,58.9,26.3,58.9,58.6s-26.4,59-58.5,59.2
			C998.7,531.2,972.5,505,972.3,472.1z"/>
	</g>
	<g>
		<path class="st3" d="M1100.8,651.2c-1.7-5.7-3.2-11.6-4.3-17.4c-0.7-4.1,0.3-8.1,4.9-9.8c4.5-1.7,7.2,1.3,9.3,4.6
			c1.4,2.2,2.4,4.6,3.1,7.1c11.6,40.5,23.1,81,34.8,121.5l49.5-15.3c-10.8-36.3-21.4-72.6-32.6-108.7c-5.3-17.1-10.7-34.4-18.3-50.6
			c-11.7-24.9-31.5-40.2-60.1-40.6c-37-0.5-74-0.3-111,0c-17.3,0.1-32.4,6.4-44.7,18.8c-11.4,11.5-18.8,25.4-23.6,40.6
			c-10.9,34.5-21.1,69.1-31.4,103.7c-3.7,12.3-7.5,24.6-10.8,37l49.3,15.2c11.5-40.5,23.1-81,34.8-121.5c0.8-2.6,1.5-5.7,3.4-7.5
			c2.2-2.1,5.5-4.3,8.3-4.2c4.2,0.1,5.9,4.1,5.3,8c-1.1,6.9-2.2,13.8-4.1,20.5c-19.5,67.9-39.3,135.8-58.9,203.7
			c-2.4,8.4-4.7,16.8-7.3,26c23,0,45.1,0,67.8,0h135.3c22.8,0,44.9,0,67.4,0c-0.2-1.4-0.2-2.2-0.4-2.9
			C1144.6,803.2,1122.7,727.2,1100.8,651.2z"/>
	</g>
	<g>
		<path class="st8" d="M1130,752.6H933.6c-10,34.5-20,69-29.9,103.5c-2.4,8.4-4.7,16.8-7.3,26c23,0,45.1,0,67.8,0h135.3
			c22.8,0,44.9,0,67.4,0c-0.2-1.4-0.2-2.2-0.4-2.9C1154.3,837,1142.2,794.8,1130,752.6z"/>
	</g>
</g>
<g>
	<path class="st3" d="M819.5,376.7c18.9,0,34.3-15.3,34.3-34.3V211.3c0-18.9-15.3-34.3-34.3-34.3H517.3c-18.9,0-34.3,15.3-34.3,34.3
		v131.1c0,18.9,15.3,34.3,34.3,34.3H819.5z"/>
</g>
<polygon class="st3" points="563.4,363.2 633,363.2 563.4,432.8 "/>
<g>
	<path class="st3" d="M1404.5,376.7c18.9,0,34.3-15.3,34.3-34.3V211.3c0-18.9-15.3-34.3-34.3-34.3h-302.2
		c-18.9,0-34.3,15.3-34.3,34.3v131.1c0,18.9,15.3,34.3,34.3,34.3H1404.5z"/>
</g>
<polygon class="st3" points="1148.4,363.2 1218,363.2 1148.4,432.8 "/>
<rect x="515.8" y="211.1" class="st9" width="312.2" height="268"/>
<text transform="matrix(1 0 0 1 515.7882 239.0594)" class="st10 st11 st12">Ich bin der beste </text>
<text transform="matrix(1 0 0 1 515.7882 287.0593)" class="st10 st11 st12">meiner Klasse in </text>
<text transform="matrix(1 0 0 1 515.7882 335.0593)" class="st10 st11 st12">Mathematik.</text>
<rect x="1101.8" y="211.1" class="st9" width="292" height="268"/>
<text transform="matrix(1 0 0 1 1101.7882 239.0594)" class="st10 st11 st12">Ich habe einen </text>
<text transform="matrix(1 0 0 1 1101.7882 287.0593)" class="st10 st11 st12">Doktortitel in </text>
<text transform="matrix(1 0 0 1 1101.7882 335.0593)" class="st10 st11 st12">Germanistik.</text>
</svg>
