<?xml version="1.0" encoding="utf-8"?>
<!-- Generator: Adobe Illustrator 21.1.0, SVG Export Plug-In . SVG Version: 6.00 Build 0)  -->
<svg version="1.1" id="Ebene_1" xmlns="http://www.w3.org/2000/svg" xmlns:xlink="http://www.w3.org/1999/xlink" x="0px" y="0px"
	 viewBox="0 0 2367 433" style="enable-background:new 0 0 2367 433;" xml:space="preserve">
<style type="text/css">
	.st0{fill:none;stroke:#E6333F;stroke-width:20;stroke-miterlimit:10;}
	.st1{fill:#3C3C3B;}
	.st2{font-family:'Faustina-SemiBold';}
	.st3{font-size:120px;}
	.st4{letter-spacing:6;}
	.st5{fill:none;stroke:#00A266;stroke-width:20;stroke-miterlimit:10;}
	.st6{letter-spacing:3;}
	.st7{fill:none;}
	.st8{font-family:'Faustina-SemiBoldItalic';}
	.st9{font-size:41px;}
</style>
<g>
	<path class="st0" d="M489.1,29.5c70.2,0,127.2,57,127.2,127.2"/>
	<text transform="matrix(1 0 0 1 428.1099 194.457)" class="st1 st2 st3 st4">2</text>
	<text transform="matrix(1 0 0 1 494.9102 194.457)" class="st1 st2 st3">5</text>
</g>
<g>
	<path class="st5" d="M188.1,30.1c70.2,0,127.2,57,127.2,127.2s-57,127.2-127.2,127.2s-127.2-57-127.2-127.2"/>
	<text transform="matrix(1 0 0 1 131.3398 194.916)" class="st1 st2 st3 st6">7</text>
	<text transform="matrix(1 0 0 1 189.7397 194.916)" class="st1 st2 st3">5</text>
</g>
<g>
	<path class="st5" d="M850.5,30.1c70.2,0,127.2,57,127.2,127.2s-57,127.2-127.2,127.2c-40.4,0-76.4-18.8-99.6-48.2"/>
	<text transform="matrix(1 0 0 1 788.3657 194.916)" class="st1 st2 st3">68</text>
</g>
<g>
	<path class="st0" d="M1160.1,29.7c70.2,0,127.2,57,127.2,127.2c0,35.2-14.2,67-37.2,90"/>
	<text transform="matrix(1 0 0 1 1099.5176 194.5547)" class="st1 st2 st3 st6">3</text>
	<text transform="matrix(1 0 0 1 1160.3174 194.5547)" class="st1 st2 st3">2</text>
</g>
<g>
	<path class="st0" d="M2177.7,30.5c70.2,0,127.2,57,127.2,127.2c0,65.2-49,119-112.2,126.4"/>
	<text transform="matrix(1 0 0 1 2116.8926 195.3584)" class="st1 st2 st3">49</text>
</g>
<g>
	<path class="st5" d="M1523.5,30.1c70.2,0,127.2,57,127.2,127.2s-57,127.2-127.2,127.2s-127.2-57-127.2-127.2
		c0-41.4,19.6-78,50.2-101.2"/>
	<text transform="matrix(1 0 0 1 1462.8994 194.916)" class="st1 st2 st3">89</text>
</g>
<g>
	<path class="st5" d="M1872.7,30.1c70.2,0,127.2,57,127.2,127.2s-57,127.2-127.2,127.2s-127.2-57-127.2-127.2
		c0-52.8,32-98,77.8-117.2"/>
	<text transform="matrix(1 0 0 1 1810.1846 194.916)" class="st1 st2 st3">96</text>
</g>
<rect x="-23.9" y="346.6" class="st7" width="391.6" height="67.7"/>
<text transform="matrix(1 0 0 1 69.5586 375.4688)" class="st1 st8 st9">Mathematik</text>
<rect x="313.8" y="346.6" class="st7" width="391.6" height="67.7"/>
<text transform="matrix(1 0 0 1 406.7417 375.4688)" class="st1 st8 st9">Germanistik</text>
<rect x="651.5" y="346.6" class="st7" width="391.6" height="67.7"/>
<text transform="matrix(1 0 0 1 796.0762 375.4688)" class="st1 st8 st9">Musik</text>
<rect x="989.2" y="346.6" class="st7" width="391.6" height="67.7"/>
<text transform="matrix(1 0 0 1 1117.7622 375.4688)" class="st1 st8 st9">Biologie</text>
<rect x="1326.9" y="346.6" class="st7" width="391.6" height="67.7"/>
<text transform="matrix(1 0 0 1 1424.2363 375.4688)" class="st1 st8 st9">Französisch</text>
<rect x="1664.6" y="346.6" class="st7" width="391.6" height="67.7"/>
<text transform="matrix(1 0 0 1 1805.8833 375.4688)" class="st1 st8 st9">Physik</text>
<rect x="2002.2" y="346.6" class="st7" width="391.6" height="67.7"/>
<text transform="matrix(1 0 0 1 2154.9365 375.4688)" class="st1 st8 st9">Sport</text>
</svg>
